<?xml version="1.0" standalone="no"?>
<!DOCTYPE svg PUBLIC "-//W3C//DTD SVG 1.1//EN" "http://www.w3.org/Graphics/SVG/1.1/DTD/svg11.dtd" >
<svg xmlns="http://www.w3.org/2000/svg">
<metadata></metadata>
<defs>
<font id="RockwellStdExtraBoldRegular" horiz-adv-x="1536" >
<font-face units-per-em="2048" ascent="1391" descent="-657" />
<missing-glyph horiz-adv-x="681" />
<glyph horiz-adv-x="0" />
<glyph horiz-adv-x="2048" />
<glyph unicode=" "  horiz-adv-x="681" />
<glyph unicode="&#x09;" horiz-adv-x="681" />
<glyph unicode="&#xa0;" horiz-adv-x="681" />
<glyph unicode="!" horiz-adv-x="811" d="M156 0v365h497v-365h-497zM164 991v400h481v-392l-72 -440h-337z" />
<glyph unicode="&#x22;" horiz-adv-x="1024" d="M49 1149v242h406v-242l-64 -297h-278zM569 1149v242h406v-242l-64 -297h-278z" />
<glyph unicode="#" horiz-adv-x="1368" d="M66 309v277h186l45 217h-231v276h288l74 351h277l-74 -351h266l74 351h276l-73 -351h129v-276h-187l-45 -217h232v-277h-289l-74 -350h-276l73 350h-266l-74 -350h-276l74 350h-129zM528 586h267l45 217h-267z" />
<glyph unicode="$" horiz-adv-x="1280" d="M59 408h330q-5 -81 42.5 -142t141.5 -84v357q-249 66 -369 174t-120 266q0 175 130.5 288.5t358.5 123.5v96h134v-96q234 -11 366.5 -120.5t122.5 -285.5h-313q-3 86 -43.5 131.5t-132.5 65.5v-316q145 -40 245.5 -89t159 -109t84 -126t25.5 -149q0 -59 -18 -115.5 t-58 -110t-98 -94t-146 -65.5t-194 -26v-152h-134v158q-258 18 -389 132.5t-125 287.5zM358 1059q0 -54 47.5 -87.5t167.5 -64.5v287q-215 -9 -215 -135zM707 170q101 3 156 42t55 112q0 123 -211 178v-332z" />
<glyph unicode="%" horiz-adv-x="1984" d="M49 1036q0 169 102 276t265 107q161 0 262.5 -107t101.5 -276t-101.5 -276t-262.5 -107q-163 0 -265 107t-102 276zM340 1036q0 -112 16.5 -152t59.5 -40t58 39t15 153q0 117 -13.5 155t-59.5 38q-41 0 -58.5 -43t-17.5 -150zM414 0l938 1391h219l-938 -1391h-219z M1204 354q0 169 102 276t265 107q161 0 262.5 -107t101.5 -276t-101.5 -276t-262.5 -107q-163 0 -265 107t-102 276zM1495 354q0 -112 16.5 -152t59.5 -40t58.5 39.5t15.5 152.5q0 117 -14 155t-60 38q-41 0 -58.5 -43t-17.5 -150z" />
<glyph unicode="&#x26;" horiz-adv-x="1792" d="M70 391q0 163 117 291t315 180q-60 114 -60 219q0 121 65 197.5t181 108.5t291 32q100 0 160 -6v-289h-25q-63 0 -97 -24.5t-34 -71.5q0 -26 17 -56.5t59 -84.5l143 -180q98 139 164 305h350v-334h-153q-46 -120 -154 -225l94 -119h213v-334h-588l-84 106 q-189 -135 -460 -135q-244 0 -379 111t-135 309zM506 442q0 -88 56 -148.5t138 -60.5q49 0 91 18.5t92 61.5l-250 318q-60 -26 -93.5 -76t-33.5 -113z" />
<glyph unicode="'" horiz-adv-x="569" d="M82 1149v242h405v-242l-63 -297h-279z" />
<glyph unicode="(" horiz-adv-x="937" d="M92 487q0 216 86.5 404.5t264 330t423.5 197.5v-254q-139 -59 -195.5 -225t-56.5 -453q0 -142 10 -243t36.5 -191t77.5 -150.5t128 -95.5v-253q-162 39 -294.5 112.5t-220 165.5t-147.5 203t-86 223.5t-26 228.5z" />
<glyph unicode=")" horiz-adv-x="937" d="M72 -193q77 35 128 95.5t77.5 150.5t36.5 191t10 243q0 287 -56.5 453t-195.5 225v254q246 -56 423.5 -197.5t264 -330t86.5 -404.5q0 -116 -26 -228.5t-86 -223.5t-147.5 -203t-220 -165.5t-294.5 -112.5v253z" />
<glyph unicode="*" horiz-adv-x="1280" d="M70 864l92 295l170 -53q53 -65 107.5 -107.5t156.5 -97.5q-29 176 -117 311v179h324v-179q-100 -147 -117 -311q112 64 168.5 108.5t89.5 96.5l172 53l94 -295l-168 -57q-105 27 -174 27q-92 0 -151 -19q74 -76 138 -118.5t138 -65.5l103 -142l-252 -184l-105 141 q3 66 -24.5 155t-71.5 161q-86 -165 -92 -316l-109 -141l-252 184l103 142q68 25 147.5 77.5t128.5 106.5q-101 16 -149 16q-106 0 -180 -24z" />
<glyph unicode="+" horiz-adv-x="1368" d="M111 532v324h411v412h324v-412h411v-324h-411v-411h-324v411h-411z" />
<glyph unicode="," horiz-adv-x="811" d="M156 0v365h497v-445q0 -157 -106.5 -242.5t-296.5 -85.5q-54 0 -94 5v196q110 0 150 44t38 163h-188z" />
<glyph unicode="-" horiz-adv-x="917" d="M102 268v432h713v-432h-713z" />
<glyph unicode="." horiz-adv-x="811" d="M156 0v365h497v-365h-497z" />
<glyph unicode="/" horiz-adv-x="575" d="M0 0l291 1391h284l-290 -1391h-285z" />
<glyph unicode="0" horiz-adv-x="1409" d="M104 700q0 319 168.5 519t432.5 200q124 0 232 -48.5t190 -138t129 -227t47 -305.5q0 -144 -34 -264t-91 -202.5t-134 -140.5t-162.5 -84.5t-176.5 -26.5q-122 0 -230.5 48.5t-191.5 137.5t-131 227t-48 305zM559 700q2 -226 31.5 -325t114.5 -99q83 0 113 97.5t30 326.5 q0 230 -33 327t-110 97q-82 0 -115 -103t-31 -321z" />
<glyph unicode="1" horiz-adv-x="1409" d="M311 0v317h199v639q-45 -12 -119.5 -13.5t-79.5 1.5v307q144 -4 258.5 43.5t173.5 124.5h209v-1102h191v-317h-832z" />
<glyph unicode="2" horiz-adv-x="1409" d="M131 0v33q0 321 215 536q56 56 203.5 167t179.5 143q78 78 78 153q0 61 -38.5 97t-104.5 36q-76 0 -112 -46.5t-44 -141.5l-356 10q2 96 32.5 172t80.5 124t119.5 79.5t143.5 44t158 12.5q249 0 403 -112.5t154 -294.5q0 -74 -23 -133t-85 -121q-57 -57 -141 -109.5 t-154.5 -85.5t-144 -75t-111.5 -80q-20 -20 -40.5 -49t-25.5 -42h440l5 119h286l-12 -436h-1106z" />
<glyph unicode="3" horiz-adv-x="1409" d="M92 467l361 27q6 -111 56.5 -164.5t149.5 -53.5q79 0 124.5 42t45.5 116q0 169 -227 178v226q103 20 148 58.5t45 107.5q0 64 -41 102.5t-107 38.5q-69 0 -109 -41t-46 -117l-375 21q13 202 158.5 306.5t412.5 104.5q254 0 400.5 -105t146.5 -288q0 -101 -57 -176 t-158 -109v-4q126 -28 195 -113t69 -212q0 -198 -163 -314t-441 -116q-152 0 -266.5 35.5t-183.5 101t-103 152.5t-35 196z" />
<glyph unicode="4" horiz-adv-x="1409" d="M66 748l649 671h430v-714h143v-248h-143v-174h143v-283h-727v283h168v174h-586zM354 705h375v387z" />
<glyph unicode="5" horiz-adv-x="1409" d="M82 375l362 22q47 -121 185 -121q92 0 143 49t51 138q0 85 -49 132.5t-135 47.5q-111 0 -190 -82l-302 107l41 723h1024v-365h-233l-33 84h-495l-15 -272q142 86 320 86q233 0 377.5 -126.5t144.5 -330.5q0 -97 -36.5 -182.5t-107 -154t-186.5 -108.5t-264 -40 q-245 0 -405 104.5t-197 288.5z" />
<glyph unicode="6" horiz-adv-x="1409" d="M121 705q0 341 169.5 527.5t477.5 186.5q214 0 348 -89t172 -257l-348 -31q-47 113 -168 113q-100 0 -154.5 -83t-54.5 -234v-13q58 40 134.5 64t152.5 24q194 0 321 -127.5t127 -320.5q0 -211 -154.5 -347t-393.5 -136q-100 0 -191.5 26.5t-171.5 84t-139 140.5 t-93 204.5t-34 267.5zM555 575q0 -313 184 -313q69 0 106.5 45.5t37.5 132.5q0 93 -42.5 143t-111.5 50q-85 0 -174 -58z" />
<glyph unicode="7" horiz-adv-x="1409" d="M127 918v473h1114v-267q-142 -214 -238 -444.5t-116 -362.5h182v-317h-805v317h180q67 207 192 426t263 367h-496v-192h-276z" />
<glyph unicode="8" horiz-adv-x="1409" d="M98 397q0 108 59 189.5t193 146.5q-102 38 -157.5 113.5t-55.5 175.5q0 183 150.5 290t408.5 107q264 0 419 -104.5t155 -282.5q0 -210 -213 -299q139 -60 196.5 -135.5t57.5 -198.5q0 -61 -15 -115.5t-57 -111t-108.5 -97.5t-177.5 -67t-255 -26q-156 0 -273.5 31.5 t-187.5 88t-104.5 130.5t-34.5 165zM518 420q0 -78 52 -126t137 -48t134.5 48.5t49.5 131.5q0 82 -49.5 130t-132.5 48q-85 0 -138 -51t-53 -133zM541 999q0 -69 44.5 -109t121.5 -40q75 0 117 40t42 111q0 69 -43.5 111.5t-113.5 42.5q-73 0 -120.5 -44t-47.5 -112z" />
<glyph unicode="9" horiz-adv-x="1409" d="M111 936q0 211 154.5 347t393.5 136q100 0 191.5 -26.5t171.5 -84t139 -140.5t93 -204.5t34 -267.5q0 -341 -169.5 -527.5t-477.5 -186.5q-214 0 -348 89t-172 257l348 30q47 -112 168 -112q100 0 154.5 83t54.5 234v12q-58 -40 -134.5 -64t-152.5 -24 q-193 0 -320.5 127.5t-127.5 321.5zM526 961q0 -93 42.5 -143t111.5 -50q86 0 174 57q0 314 -184 314q-69 0 -106.5 -45.5t-37.5 -132.5z" />
<glyph unicode=":" horiz-adv-x="811" d="M156 0v365h497v-365h-497zM156 606v365h497v-365h-497z" />
<glyph unicode=";" horiz-adv-x="811" d="M156 0v365h497v-445q0 -157 -106.5 -242.5t-296.5 -85.5q-54 0 -94 5v196q110 0 150 44t38 163h-188zM156 606v365h497v-365h-497z" />
<glyph unicode="&#x3c;" horiz-adv-x="1366" d="M109 545v295l1148 475v-350l-702 -273l702 -272v-350z" />
<glyph unicode="=" horiz-adv-x="1366" d="M109 287v323h1148v-323h-1148zM109 778v324h1148v-324h-1148z" />
<glyph unicode="&#x3e;" horiz-adv-x="1366" d="M109 70v350l702 272l-702 273v350l1148 -475v-295z" />
<glyph unicode="?" horiz-adv-x="1300" d="M53 1022q6 183 158 289q154 108 436 108q278 0 440 -107.5t162 -291.5q0 -117 -65 -207.5t-174.5 -137t-243.5 -42.5l-21 -90h-262l-24 301h12q54 -8 109 -8q97 0 152.5 48.5t55.5 133.5q0 74 -47.5 121t-122.5 47q-77 0 -119 -43t-42 -121h-404zM365 0v365h497v-365 h-497z" />
<glyph unicode="@" horiz-adv-x="1515" d="M-25 502q0 82 13.5 166.5t44 173.5t75.5 169.5t113 152.5t151.5 124t196.5 82.5t242 30.5q145 0 266 -40.5t205.5 -111t143.5 -165t86.5 -201t27.5 -221.5q0 -95 -20.5 -181t-55.5 -151.5t-81 -120.5t-96 -93t-102 -64.5t-98.5 -39t-85.5 -12.5q-63 0 -99.5 28.5 t-55.5 90.5q-67 -65 -120.5 -92t-119.5 -27q-145 0 -235 119t-90 311q0 153 52 298.5t152.5 244t223.5 98.5q73 0 126 -33.5t109 -113.5l19 112h194l-125 -790q-8 -38 -0.5 -58t35.5 -20q24 0 59 15.5t78 54t79 92.5t60.5 141.5t24.5 190.5q0 261 -150.5 415t-406.5 154 q-194 0 -345.5 -91.5t-235 -257.5t-83.5 -380q0 -315 179 -507t471 -192q145 0 270 45t248 142h225q-119 -155 -321.5 -255t-417.5 -100q-174 0 -327.5 66.5t-262.5 181.5t-172.5 276t-63.5 343zM502 375q0 -102 36 -159.5t101 -57.5q58 0 113 55q54 54 88 205t34 295 q0 90 -33.5 138t-97.5 48q-74 0 -130 -77t-83.5 -194.5t-27.5 -252.5z" />
<glyph unicode="A" horiz-adv-x="1556" d="M23 0v334h104l262 723h-113v334h1002v-334h-113l267 -723h102v-334h-727v305h121l-54 174h-356l-59 -174h114v-305h-550zM573 653h248l-116 385h-5z" />
<glyph unicode="B" horiz-adv-x="1748" d="M90 0v334h121v723h-121v334h987q120 0 214.5 -20.5t154.5 -54t99 -81t55 -98t16 -107.5q0 -106 -67.5 -182.5t-186.5 -102.5v-4q138 -34 221.5 -129.5t83.5 -220.5q0 -60 -16.5 -113t-60.5 -105.5t-112 -89.5t-178.5 -60t-252.5 -23h-957zM750 305h120q115 0 164 31 t49 104q0 140 -188 140h-145v-275zM750 831h127q100 0 143 30t43 97q0 64 -41.5 95.5t-138.5 31.5h-133v-254z" />
<glyph unicode="C" horiz-adv-x="1642" d="M100 696q0 206 88 371.5t244.5 258.5t351.5 93q116 0 219.5 -31.5t176.5 -89.5v93h333v-508h-346q-30 98 -92 150t-145 52q-109 0 -167 -90.5t-58 -296.5q0 -203 56.5 -299t176.5 -96q103 0 166.5 76.5t91.5 234.5l360 -129q-120 -508 -673 -508q-130 0 -240 24.5 t-189 66.5t-141.5 100t-101.5 121.5t-64.5 136t-36 138.5t-10.5 132z" />
<glyph unicode="D" horiz-adv-x="1792" d="M80 0v334h108v725h-108v332h665q201 0 328 -20t240 -77q170 -86 261 -251.5t91 -354.5q0 -187 -85 -351.5t-228 -236.5q-72 -36 -138 -57.5t-149.5 -30t-141.5 -10.5t-178 -2h-665zM727 334h80q144 0 209 88.5t65 271.5q0 197 -63.5 280t-210.5 83h-80v-723z" />
<glyph unicode="E" d="M92 0v334h109v723h-109v334h1327v-445h-364v111h-316v-213h275v-283h-275v-227h316v110h364v-444h-1327z" />
<glyph unicode="F" horiz-adv-x="1449" d="M49 1057v334h1370v-459h-364v125h-316v-217h238v-283h-238v-223h160v-334h-846v334h148v723h-152z" />
<glyph unicode="G" horiz-adv-x="1728" d="M100 696q0 155 55.5 289.5t152.5 229.5t233.5 149.5t294.5 54.5q122 0 227.5 -32.5t175.5 -92.5v97h334v-486h-334q-51 94 -118.5 137t-162.5 43q-61 0 -105 -17.5t-72.5 -49t-45.5 -83t-23.5 -112.5t-6.5 -145q0 -197 59.5 -286t191.5 -89q90 0 139.5 46t49.5 130h-144 v264h623v-104q0 -160 -53.5 -287t-148.5 -208t-222 -124t-276 -43q-145 0 -266 27.5t-204 72.5t-148 107.5t-102.5 127t-62 136.5t-33 131.5t-8.5 116.5z" />
<glyph unicode="H" horiz-adv-x="1792" d="M90 0v334h107v723h-107v334h733v-334h-88v-213h322v213h-88v334h733v-334h-107v-723h107v-334h-733v334h88v227h-322v-227h88v-334h-733z" />
<glyph unicode="I" horiz-adv-x="937" d="M72 0v334h129v723h-129v334h796v-334h-129v-723h129v-334h-796z" />
<glyph unicode="J" horiz-adv-x="917" d="M41 -88q33 -8 59 -8q62 0 80.5 41.5t18.5 167.5v944h-127v334h784v-334h-119v-934q0 -182 -25.5 -279.5t-97.5 -169.5q-69 -69 -150.5 -94.5t-213.5 -25.5q-94 0 -209 16v342z" />
<glyph unicode="K" horiz-adv-x="1748" d="M92 0v334h107v723h-107v334h756v-334h-111v-723h111v-334h-756zM754 729l354 328h-115v334h686v-334h-108l-283 -262l354 -461h70v-334h-719v334h66z" />
<glyph unicode="L" horiz-adv-x="1429" d="M72 0v334h125v723h-125v334h794v-334h-131v-723h328v223h334v-557h-1325z" />
<glyph unicode="M" horiz-adv-x="2260" d="M88 0v334h109v723h-109v334h838l204 -537l211 537h832v-334h-109v-723h109v-334h-721v334h109v772h-5l-413 -1106h-209l-410 1106h-4v-772h109v-334h-541z" />
<glyph unicode="N" horiz-adv-x="1748" d="M68 0v334h122v723h-122v334h659l506 -727h4v393h-117v334h561v-334h-120v-1080h-459l-584 846h-4v-489h125v-334h-571z" />
<glyph unicode="O" horiz-adv-x="1771" d="M100 698q0 101 29 201t92 194.5t152.5 166.5t222 115.5t289.5 43.5q132 0 246.5 -30.5t198.5 -83.5t150 -123t106.5 -151.5t61.5 -165t21 -167.5t-21 -167.5t-61.5 -165t-106.5 -151.5t-150 -123t-198.5 -83.5t-246.5 -30.5q-157 0 -289.5 43.5t-222 115.5t-152.5 166.5 t-92 194.5t-29 201zM705 698q0 -208 37.5 -301.5t142.5 -93.5t142.5 93.5t37.5 301.5t-37.5 302t-142.5 94t-142.5 -94t-37.5 -302z" />
<glyph unicode="P" horiz-adv-x="1685" d="M90 0v334h135v723h-135v334h938q128 0 232 -23.5t173.5 -64t116 -96.5t67.5 -119.5t21 -135.5q0 -56 -13.5 -109.5t-51.5 -113t-97 -103.5t-160 -73t-231 -29h-321v-190h139v-334h-813zM764 829h147q164 0 164 127q0 66 -41 97.5t-139 31.5h-131v-256z" />
<glyph unicode="Q" horiz-adv-x="1771" d="M100 698q0 100 29 199.5t92 194t152.5 167t222 116.5t289.5 44q155 0 287 -43t222 -115t153 -166t92.5 -194.5t29.5 -202.5q0 -100 -29.5 -201t-92.5 -194.5t-150.5 -166t-214 -116t-273.5 -43.5v-4q63 -10 157 -36.5t180 -38.5q47 -6 105 -6q46 0 97 4l-115 -322 q-23 -4 -48 -4q-34 0 -71 8q-64 14 -126 41.5t-125 56.5t-138 50.5t-143 21.5q-66 0 -106 -11t-82 -40l-148 192q63 56 141.5 82t190.5 27v4q-163 25 -296.5 128.5t-207.5 254t-74 313.5zM705 698q0 -208 37.5 -301.5t142.5 -93.5t142.5 93.5t37.5 301.5t-37.5 302 t-142.5 94t-142.5 -94t-37.5 -302z" />
<glyph unicode="R" horiz-adv-x="1748" d="M90 0v334h113v723h-113v334h772q295 0 432.5 -31t225.5 -119q106 -106 106 -266q0 -106 -55.5 -195t-147.5 -129l193 -317h100v-334h-502l-303 567h-170v-233h105v-334h-756zM741 821h152q82 0 126 34.5t44 96.5q0 61 -43 97t-123 36h-156v-264z" />
<glyph unicode="S" horiz-adv-x="1280" d="M82 997q0 184 120.5 298t315.5 114q184 0 309 -104v86h314v-396h-314q-52 164 -200 164q-47 0 -75 -23t-28 -63q0 -36 25 -61q20 -20 86.5 -52t139 -64t159 -84t141.5 -107q47 -47 84 -128.5t37 -173.5q0 -180 -131 -300.5t-326 -120.5q-87 0 -175 29t-158 81v-92h-314 v446h314q32 -95 83 -138.5t129 -43.5q51 0 81 24.5t30 65.5q0 39 -35 74q-29 29 -92.5 60.5t-127 56.5t-139 68t-126.5 94q-127 127 -127 290z" />
<glyph unicode="T" d="M78 805v586h1382v-586h-262v252h-160v-723h123v-334h-784v334h123v723h-160v-252h-262z" />
<glyph unicode="U" horiz-adv-x="1492" d="M57 1057v334h713v-334h-68v-512q0 -39 2 -67t10 -63.5t23 -57.5t43.5 -38t67.5 -16q75 0 104 55t29 197v502h-70v334h523v-334h-109v-541q0 -261 -144.5 -400t-428.5 -139q-293 0 -440.5 135.5t-147.5 440.5v504h-107z" />
<glyph unicode="V" d="M16 1057v334h748v-334h-117l205 -592h4l215 592h-115v334h562v-334h-103l-418 -1069h-434l-442 1069h-105z" />
<glyph unicode="W" horiz-adv-x="2260" d="M16 1057v334h721v-334h-102l162 -598h4l207 598h-105v334h606v-334h-102l207 -598h4l164 598h-101v334h562v-334h-95l-397 -1069h-430l-186 536h-5l-186 -536h-440l-391 1069h-97z" />
<glyph unicode="X" horiz-adv-x="2048" d="M53 0v334h156l457 354l-457 369h-148v334h926v-293h-137l233 -203l205 203h-119v293h773v-334h-207l-377 -314l497 -409h140v-334h-936v293h145l-256 231l-235 -231h147v-293h-807z" />
<glyph unicode="Y" horiz-adv-x="1492" d="M37 1057v334h727v-334h-82l145 -283l179 283h-84v334h534v-334h-88l-348 -502v-221h110v-334h-759v334h110v221l-350 502h-94z" />
<glyph unicode="Z" horiz-adv-x="1492" d="M59 0v319l686 766h-348v-172h-319v478h1349v-283l-718 -803h403v191h320v-496h-1373z" />
<glyph unicode="[" horiz-adv-x="1024" d="M158 -426v1817h782v-385h-289v-1047h285v-385h-778z" />
<glyph unicode="\" horiz-adv-x="575" d="M0 1391h285l290 -1391h-284z" />
<glyph unicode="]" horiz-adv-x="1024" d="M84 -41h289v1047h-285v385h778v-1817h-782v385z" />
<glyph unicode="^" horiz-adv-x="1351" d="M127 606l408 813h278l410 -813h-355l-194 492l-193 -492h-354z" />
<glyph unicode="_" horiz-adv-x="1024" d="M-12 -154h1048v-102h-1048v102z" />
<glyph unicode="`" horiz-adv-x="681" d="M-96 1473h463l190 -359h-240z" />
<glyph unicode="a" d="M80 737q59 143 205 202.5t428 59.5q344 0 492.5 -82t148.5 -280v-332h127v-305h-631v86q-28 -25 -48.5 -39t-60 -31.5t-98.5 -25.5t-139 -8q-107 0 -190 26.5t-131 71t-71.5 96.5t-23.5 109q0 138 129 224.5t334 86.5q191 0 299 -51v88q0 67 -48.5 112.5t-139.5 45.5 q-122 0 -189 -95zM563 330q0 -68 41.5 -104t93.5 -36q87 0 152 58v176q-70 37 -141 37q-65 0 -105.5 -36.5t-40.5 -94.5z" />
<glyph unicode="b" horiz-adv-x="1622" d="M53 0v305h127v780h-127v306h631v-484q129 80 313 80q235 0 383 -132t148 -361q0 -218 -146.5 -365t-363.5 -147q-117 0 -195 27t-139 79v-88h-631zM680 483q0 -101 45 -158t127 -57t124 56t42 163q0 101 -45 157t-125 56q-78 0 -123 -58t-45 -159z" />
<glyph unicode="c" horiz-adv-x="1409" d="M90 477q0 142 75.5 259t208 184t294.5 67q180 0 317 -98v82h307v-414h-307q-62 170 -192 170q-86 0 -139.5 -70.5t-53.5 -181.5q0 -110 52.5 -177t140.5 -67q68 0 112.5 43.5t59.5 124.5l374 -84q-50 -164 -204.5 -254t-389.5 -90q-298 0 -476.5 138t-178.5 368z" />
<glyph unicode="d" horiz-adv-x="1642" d="M96 494q0 229 148 361t383 132q184 0 313 -80v178h-123v306h627v-1086h127v-305h-631v88q-44 -43 -132 -74.5t-202 -31.5q-217 0 -363.5 147t-146.5 365zM606 487q0 -107 42 -163t124 -56t127 57t45 158t-45 159t-123 58q-80 0 -125 -56t-45 -157z" />
<glyph unicode="e" horiz-adv-x="1429" d="M90 479q0 232 173 376t450 144q97 0 184.5 -18t169 -60.5t140.5 -106.5t95 -161.5t37 -218.5h-764q1 -114 47.5 -174.5t131.5 -60.5q103 0 147 106l416 -49q-62 -137 -207 -211t-352 -74q-173 0 -305 41.5t-209.5 114t-115.5 161t-38 191.5zM582 561h284q1 13 1 25 q0 86 -37 134q-42 56 -109 56q-66 0 -105 -62q-35 -55 -35 -132q0 -11 1 -21z" />
<glyph unicode="f" horiz-adv-x="937" d="M70 0v305h123v361h-123v305h123v15q0 94 23 166q26 77 74 128t123 82t163.5 44t203.5 13q9 0 93 -1q50 -1 84 -1h36v-270q-81 6 -121 6q-109 0 -144 -38q-32 -36 -32 -133v-11h185v-305h-185v-361h164v-305h-790z" />
<glyph unicode="g" horiz-adv-x="1622" d="M86 489q0 218 152 358t387 140q190 0 315 -104v88h625v-305h-121v-588q0 -280 -167 -402t-536 -122q-159 0 -317 22t-254 59l137 248q114 -49 309 -49q81 0 139 12t103.5 41.5t65.5 82.5q17 43 17 101q0 14 -1 29q-146 -77 -332 -77q-234 0 -378 128.5t-144 337.5z M596 479q0 -95 47.5 -152t126.5 -57q80 0 126 56t46 153q0 100 -48 160.5t-126 60.5q-77 0 -124.5 -61t-47.5 -160z" />
<glyph unicode="h" horiz-adv-x="1622" d="M45 0v305h127v780h-127v306h631v-539q198 135 403 135q165 0 264 -102t99 -314v-266h114v-305h-618v518q0 66 -30.5 103.5t-90.5 37.5q-57 0 -141 -41v-313h135v-305h-766z" />
<glyph unicode="i" horiz-adv-x="831" d="M72 0v305h100v361h-100v305h604v-666h84v-305h-688zM131 1247q0 71 79 121.5t196 50.5q119 0 195.5 -48.5t76.5 -123.5q0 -74 -73 -124t-199 -50t-200.5 46t-74.5 128z" />
<glyph unicode="j" horiz-adv-x="831" d="M-4 -141q48 1 76.5 3t52 12t34.5 22.5t18.5 41.5t9 60.5t1.5 87.5v580h-100v305h604v-848q0 -123 -14 -208t-47.5 -152.5t-93 -106.5t-148 -58.5t-215.5 -19.5q-113 0 -178 8v273zM131 1247q0 74 79 123t196 49q120 0 196 -48.5t76 -123.5q0 -79 -75.5 -126.5 t-196.5 -47.5q-129 0 -202 46t-73 128z" />
<glyph unicode="k" horiz-adv-x="1515" d="M49 0v305h125v780h-125v306h629v-969l315 309h-176v240h621v-264h-115l-182 -179l219 -223h78v-305h-361l-399 420v-420h-629z" />
<glyph unicode="l" horiz-adv-x="831" d="M68 0v305h102v780h-102v306h606v-1086h90v-305h-696z" />
<glyph unicode="m" horiz-adv-x="2453" d="M70 0v305h123v361h-123v305h626v-144q183 160 420 160q251 0 334 -188q225 188 455 188q163 0 261.5 -99t98.5 -308v-275h129v-305h-633v535q0 63 -30 93.5t-82 30.5q-84 0 -168 -61v-293h139v-305h-643v535q0 66 -27 95t-86 29q-85 0 -168 -61v-293h140v-305h-766z" />
<glyph unicode="n" horiz-adv-x="1642" d="M68 0v305h127v361h-127v305h630v-135q40 30 70.5 50t83 46.5t114.5 40.5t130 14q177 0 275.5 -98t98.5 -307v-277h115v-305h-618v508q0 151 -123 151q-73 0 -146 -49v-305h142v-305h-772z" />
<glyph unicode="o" d="M88 485q0 98 37 182t101 144.5t150.5 103t186 63.5t205.5 21q97 0 190.5 -18t183 -58t157 -98t108.5 -146t41 -194q0 -98 -36.5 -181.5t-101 -144t-150.5 -103.5t-185.5 -64t-206.5 -21q-135 0 -256.5 33.5t-216.5 96t-151 162t-56 222.5zM598 483q0 -107 43.5 -166 t122.5 -59q83 0 128.5 61t45.5 173q0 104 -44 162.5t-122 58.5q-83 0 -128.5 -60.5t-45.5 -169.5z" />
<glyph unicode="p" horiz-adv-x="1642" d="M74 -141h116v807h-116v305h620v-88q17 14 40 27.5t64.5 33t100 31.5t123.5 12q227 0 376.5 -144t149.5 -364q0 -226 -148.5 -361.5t-391.5 -135.5q-190 0 -314 79v-202h127v-305h-747v305zM694 483q0 -102 43.5 -158.5t122.5 -56.5q77 0 127.5 54.5t50.5 171.5 q0 204 -172 204q-83 0 -127.5 -56.5t-44.5 -158.5z" />
<glyph unicode="q" horiz-adv-x="1642" d="M94 479q0 220 150 364t377 144q203 0 327 -104v88h621v-305h-117v-807h117v-305h-748v305h127v202q-123 -79 -313 -79q-243 0 -392 135.5t-149 361.5zM604 494q0 -117 50.5 -171.5t127.5 -54.5q79 0 122.5 56.5t43.5 158.5t-44.5 158.5t-127.5 56.5q-172 0 -172 -204z " />
<glyph unicode="r" horiz-adv-x="1110" d="M66 0v305h131v361h-131v305h602v-244h4q47 137 158 203q98 58 239 58q19 0 39 -1v-420q-29 1 -56 1q-176 0 -260 -57q-92 -62 -92 -190v-16h148v-305h-782z" />
<glyph unicode="s" horiz-adv-x="1259" d="M90 676q0 148 106 230.5t296 82.5q106 0 190 -29.5t111 -60.5v72h307v-283h-285q-114 103 -258 103q-108 0 -108 -64q0 -10 5.5 -18.5t20 -15t29.5 -11.5t43 -11t52.5 -10t65.5 -11.5t74 -14.5q265 -54 363 -152q39 -39 53 -79.5t14 -94.5q0 -77 -28.5 -136.5 t-72.5 -94.5t-103 -57.5t-114 -30.5t-112 -8q-37 0 -69.5 2.5t-61 9t-48 11.5t-43 15.5t-32.5 14.5t-30 15.5t-23 12.5v-75h-311v309h291q67 -67 120.5 -93t124.5 -26q59 0 96.5 15t37.5 40q0 17 -13 31t-42 24.5t-49 16t-62 14t-54 11.5q-89 21 -149 37.5t-144.5 55 t-125.5 83.5q-62 69 -62 170z" />
<glyph unicode="t" horiz-adv-x="937" d="M12 666v305h127v147l504 240v-387h205v-305h-205v-203q0 -79 18.5 -109t69.5 -30q59 0 117 30v-297q-54 -38 -147 -62t-183 -24q-379 0 -379 373v322h-127z" />
<glyph unicode="u" horiz-adv-x="1622" d="M47 666v305h621v-506q0 -81 26 -118.5t86 -37.5q84 0 154 45v312h-131v305h635v-666h116v-305h-620v123q-92 -66 -200 -103.5t-208 -37.5q-159 0 -260.5 103.5t-101.5 311.5v269h-117z" />
<glyph unicode="v" horiz-adv-x="1386" d="M37 666v305h684v-305h-109l162 -369l170 369h-96v305h502v-305h-95l-354 -678h-403l-365 678h-96z" />
<glyph unicode="w" horiz-adv-x="2091" d="M43 666v305h655v-305h-98l115 -324l239 629h373l217 -629l125 324h-94v305h473v-305h-94l-285 -678h-397l-221 497l-209 -497h-398l-297 678h-104z" />
<glyph unicode="x" horiz-adv-x="1386" d="M59 666v305h492l178 -262l182 262h379v-305h-135l-125 -142l184 -219h113v-305h-481l-189 264l-194 -264h-381v305h121l143 156l-170 205h-117z" />
<glyph unicode="y" horiz-adv-x="1343" d="M20 666v305h662v-305h-107l170 -381l154 381h-94v305h502v-305h-97l-530 -1112h-424v305h164l49 90l-373 717h-76z" />
<glyph unicode="z" horiz-adv-x="1343" d="M82 0v256l545 485h-330v-112h-207v342h1172v-240l-553 -502h333v117h209v-346h-1169z" />
<glyph unicode="{" horiz-adv-x="796" d="M25 344v285q102 0 148 52t46 163v172q0 223 89.5 313t301.5 90h162v-327h-37q-91 0 -122 -47t-31 -175v-55q0 -143 -42.5 -222.5t-138.5 -103.5v-4q96 -24 138.5 -104t42.5 -223v-56q0 -128 31 -174.5t122 -46.5h37v-327h-162q-212 0 -301.5 90t-89.5 313v172 q0 111 -46 163t-148 52z" />
<glyph unicode="|" horiz-adv-x="1308" d="M492 -313v1704h327v-1704h-327z" />
<glyph unicode="}" horiz-adv-x="796" d="M25 -119h36q91 0 122.5 46.5t31.5 174.5v56q0 143 42 222t138 103v4q-96 24 -138 104.5t-42 223.5v55q0 128 -31.5 175t-122.5 47h-36v327h161q212 0 302 -90t90 -313v-172q0 -111 46 -163t148 -52v-285q-102 0 -148 -52t-46 -163v-172q0 -223 -90 -313t-302 -90h-161 v327z" />
<glyph unicode="~" horiz-adv-x="1343" d="M98 518v332q90 79 170 114t168 35q66 0 141 -25t130 -54.5t119 -54.5t110 -25q74 0 147 37t162 120v-325q-110 -89 -180 -121.5t-150 -32.5q-67 0 -140 25t-126 55t-117 55t-114 25q-154 0 -320 -160z" />
<glyph unicode="&#xa1;" horiz-adv-x="811" d="M158 606v365h497v-365h-497zM166 -29l72 441h337l72 -432v-400h-481v391z" />
<glyph unicode="&#xa2;" horiz-adv-x="1409" d="M90 481q0 119 51 218t133 160.5t181 94.5t200 33v154h150v-166q69 -13 102 -25.5t78 -40.5v62h307v-414h-307q-15 64 -68.5 117t-125.5 53q-84 0 -137.5 -70.5t-53.5 -181.5q0 -107 54 -175.5t139 -68.5q68 0 112.5 44t59.5 124l374 -82q-46 -157 -190.5 -251.5 t-343.5 -94.5v-159h-150v163q-262 20 -413.5 156t-151.5 350z" />
<glyph unicode="&#xa3;" horiz-adv-x="1280" d="M84 246q0 106 71.5 171.5t186.5 65.5q66 0 123 -28q-15 46 -46 98.5t-63 85.5h-256v184h154q-47 92 -47 199q0 186 144.5 291.5t396.5 105.5q237 0 365 -93t128 -265l-328 -43q-7 70 -43 109.5t-92 39.5q-53 0 -86 -33t-33 -85q0 -57 78 -226h310v-184h-254 q14 -54 14 -113q0 -93 -29 -176q62 -39 133 -39q58 0 89.5 29.5t46.5 99.5l235 -61q-15 -190 -111.5 -293.5t-255.5 -103.5q-166 0 -278 127q-124 -127 -275 -127q-123 0 -200.5 74t-77.5 190zM205 246q0 -56 37.5 -91.5t95.5 -35.5q66 0 106.5 38t49.5 111q-80 92 -172 92 q-50 0 -83.5 -32.5t-33.5 -81.5z" />
<glyph unicode="&#xa4;" horiz-adv-x="1368" d="M111 334l135 135q-53 112 -53 223q0 129 55 228l-137 137l213 213l141 -142q40 21 99.5 35.5t113.5 14.5q115 0 223 -54l146 146l213 -213l-148 -148q51 -100 51 -217q0 -102 -49 -213l146 -145l-213 -213l-142 141q-110 -55 -227 -55q-120 0 -217 51l-137 -137zM485 692 q0 -79 56.5 -135.5t136.5 -56.5t136 56t56 136t-56.5 136.5t-135.5 56.5q-80 0 -136.5 -56.5t-56.5 -136.5z" />
<glyph unicode="&#xa5;" horiz-adv-x="1492" d="M37 1057v334h727v-334h-84l147 -283l179 283h-84v334h534v-334h-86l-133 -191h190v-133h-284l-94 -135h378v-133h-407v-131h110v-334h-759v334h110v131h-418v133h386l-93 135h-293v133h201l-133 191h-94z" />
<glyph unicode="&#xa6;" horiz-adv-x="1308" d="M492 -313v739h327v-739h-327zM492 649v742h327v-742h-327z" />
<glyph unicode="&#xa7;" horiz-adv-x="1386" d="M90 508q0 95 45 168t141 133q-122 110 -122 256q0 163 139 258.5t375 95.5q247 0 398.5 -99.5t160.5 -266.5h-334q-26 94 -77.5 134t-143.5 40q-77 0 -123.5 -33t-46.5 -88q0 -44 24 -68q30 -30 117 -62.5t178 -58t194 -74t163 -108.5q116 -116 116 -276 q0 -97 -43 -164.5t-141 -122.5q76 -57 109.5 -115t33.5 -133q0 -172 -146 -271t-398 -99q-89 0 -168.5 11.5t-152 39t-124.5 68t-81.5 102.5t-26.5 139h336q4 -83 62 -125.5t157 -42.5q92 0 136 29.5t44 93.5q0 41 -31 72q-29 29 -118.5 64.5t-185.5 66t-202 82.5t-164 110 q-100 100 -100 244zM422 582q0 -64 49 -113q41 -41 213.5 -101t226.5 -87q28 17 44 45t16 57q0 78 -41 119q-44 44 -119.5 72t-172 54.5t-155.5 55.5q-61 -40 -61 -102z" />
<glyph unicode="&#xa8;" horiz-adv-x="681" d="M-170 1329q0 76 54.5 130t131.5 54t131 -54t54 -130q0 -77 -54.5 -131.5t-130.5 -54.5t-131 54.5t-55 131.5zM481 1329q0 76 55 130t132 54q76 0 130 -53.5t54 -130.5t-54 -131.5t-130 -54.5q-77 0 -132 55t-55 131z" />
<glyph unicode="&#xa9;" horiz-adv-x="1642" d="M57 733q0 155 60.5 296.5t163 244t244 163t296.5 60.5t296.5 -60.5t244 -163t163 -244t60.5 -296.5t-60.5 -296t-163 -243t-244 -162.5t-296.5 -60.5t-296.5 60.5t-244 162.5t-163 243t-60.5 296zM205 733q0 -167 82.5 -308.5t224.5 -223.5t309 -82t309 82t225 223.5 t83 308.5q0 168 -83 310t-225 224.5t-309 82.5t-309 -82.5t-224.5 -224.5t-82.5 -310zM410 735q0 186 118 307t299 121q143 0 243 -74.5t126 -201.5l-197 -31q-38 160 -182 160q-86 0 -135 -75.5t-49 -205.5q0 -284 186 -284q140 0 180 190l205 -49q-87 -289 -379 -289 q-186 0 -300.5 119t-114.5 313z" />
<glyph unicode="&#xaa;" horiz-adv-x="980" d="M27 1233q39 102 137 144t285 42q235 0 330 -54t95 -198v-157h80v-217h-424v30q-65 -25 -105.5 -33t-100.5 -8q-129 0 -205 53t-76 144t85.5 146t227.5 55q77 0 174 -23q0 60 -25 85.5t-85 25.5q-84 0 -113 -60zM371 991q0 -25 22 -44t51 -19q25 0 86 24v82q-50 17 -77 17 q-38 0 -60 -16t-22 -44z" />
<glyph unicode="&#xab;" horiz-adv-x="1579" d="M90 483l227 488h465l-231 -488l231 -483h-465zM834 483l227 488h465l-232 -488l232 -483h-465z" />
<glyph unicode="&#xac;" horiz-adv-x="1368" d="M109 786v324h1148v-809h-323v485h-825z" />
<glyph unicode="&#xad;" horiz-adv-x="917" d="M102 268v432h713v-432h-713z" />
<glyph unicode="&#xae;" horiz-adv-x="1642" d="M57 733q0 155 60.5 296.5t163 244t244 163t296.5 60.5t296.5 -60.5t244 -163t163 -244t60.5 -296.5t-60.5 -296t-163 -243t-244 -162.5t-296.5 -60.5t-296.5 60.5t-244 162.5t-163 243t-60.5 296zM205 733q0 -167 82.5 -308.5t224.5 -223.5t309 -82t309 82t225 223.5 t83 308.5q0 168 -83 310t-225 224.5t-309 82.5t-309 -82.5t-224.5 -224.5t-82.5 -310zM475 328v813h410q119 0 184.5 -65t65.5 -163q0 -93 -59 -154t-161 -73v-4q52 -18 79.5 -49t92.5 -141l97 -164h-205l-68 131q-57 110 -105 156.5t-110 46.5h-55v-334h-166zM641 791h160 q78 0 119 29.5t41 82.5q0 111 -170 111h-150v-223z" />
<glyph unicode="&#xaf;" horiz-adv-x="681" d="M-170 1188v217h1024v-217h-1024z" />
<glyph unicode="&#xb0;" horiz-adv-x="819" d="M20 1030q0 161 114.5 275t275.5 114t275 -114t114 -275t-114 -275t-275 -114t-275.5 114t-114.5 275zM225 1030q0 -78 52.5 -131t130.5 -53t132 53t54 131t-54 131t-132 53t-130.5 -53t-52.5 -131z" />
<glyph unicode="&#xb1;" horiz-adv-x="1368" d="M111 0v324h1146v-324h-1146zM111 770v324h411v372h324v-372h411v-324h-411v-373h-324v373h-411z" />
<glyph unicode="&#xb2;" horiz-adv-x="831" d="M66 662v47q0 141 108 249q50 50 142.5 109t119.5 86q29 29 29 51q0 23 -20 36t-54 13q-18 0 -31.5 -5.5t-21 -11.5t-12.5 -20t-6.5 -20t-3 -22t-1.5 -17l-237 6q0 256 328 256q153 0 246 -62t93 -165q0 -76 -57 -133q-62 -62 -211 -121q-75 -30 -99.5 -44t-35.5 -32h215 l2 60h193l-9 -260h-677z" />
<glyph unicode="&#xb3;" horiz-adv-x="831" d="M41 936l238 16q3 -65 26.5 -89.5t81.5 -24.5q88 0 88 63q0 71 -133 74v149q115 6 115 66q0 24 -21 38.5t-55 14.5q-43 0 -60 -19t-20 -59l-246 9q7 126 91.5 185.5t254.5 59.5q157 0 247.5 -57.5t90.5 -157.5q0 -45 -19 -77.5t-63 -63.5q60 -35 85.5 -74.5t25.5 -97.5 q0 -110 -99 -174t-268 -64q-354 0 -360 283z" />
<glyph unicode="&#xb4;" horiz-adv-x="681" d="M125 1114l190 359h463l-413 -359h-240z" />
<glyph unicode="&#xb5;" horiz-adv-x="1366" d="M121 -446v1417h409v-479q0 -193 136 -193q48 0 95 23t75 73v576h409v-971h-399v123h-6q-69 -152 -215 -152q-58 0 -95 29v-446h-409z" />
<glyph unicode="&#xb6;" horiz-adv-x="1740" d="M129 1001q0 64 15 123t50 113.5t87 94t130.5 63.5t176.5 24h1024v-317h-133v-1548h-297v1548h-166v-1548h-297v1013h-135q-95 0 -172 23.5t-129 64t-87.5 96.5t-51 118.5t-15.5 131.5z" />
<glyph unicode="&#xb7;" horiz-adv-x="811" d="M156 569v365h497v-365h-497z" />
<glyph unicode="&#xb8;" horiz-adv-x="681" d="M113 -391l14 121q14 -4 47 -4q54 0 78 14.5t24 46.5q0 45 -47 45q-14 0 -28 -2l20 96q72 60 170 60q94 0 156.5 -56t62.5 -141q0 -95 -78 -147t-219 -52q-107 0 -200 19z" />
<glyph unicode="&#xb9;" horiz-adv-x="831" d="M160 662v200h116v281q-66 -13 -116 0v192q108 -1 164.5 19.5t97.5 64.5h139v-557h113v-200h-514z" />
<glyph unicode="&#xba;" horiz-adv-x="980" d="M43 1100q0 140 123 229.5t315 89.5q202 0 329.5 -89t127.5 -230q0 -145 -123 -234.5t-321 -89.5q-204 0 -327.5 89t-123.5 235zM393 1096q0 -115 94 -115q101 0 101 123q0 53 -24.5 81.5t-69.5 28.5q-101 0 -101 -118z" />
<glyph unicode="&#xbb;" horiz-adv-x="1579" d="M53 0l232 487l-232 484h465l227 -484l-227 -487h-465zM797 0l231 487l-231 484h465l227 -484l-227 -487h-465z" />
<glyph unicode="&#xbc;" horiz-adv-x="1984" d="M215 662v200h117v281q-67 -13 -117 0v192q108 -1 164.5 19.5t97.5 64.5h139v-557h113v-200h-514zM438 0l938 1391h219l-938 -1391h-219zM1120 408l396 350h268v-361h86v-164h-86v-51h86v-182h-453v182h99v51h-342zM1352 397h164v144z" />
<glyph unicode="&#xbd;" horiz-adv-x="1984" d="M215 662v200h117v281q-67 -13 -117 0v192q108 -1 164.5 19.5t97.5 64.5h139v-557h113v-200h-514zM414 0l938 1391h219l-938 -1391h-219zM1163 0v47q0 141 109 250q50 50 142.5 109t119.5 86q29 29 29 51q0 23 -20 36t-54 13q-18 0 -31.5 -5.5t-21 -11.5t-12.5 -20 t-6.5 -20t-3 -22t-1.5 -17l-237 6q0 256 327 256q152 0 246 -62.5t94 -165.5q0 -76 -57 -133q-62 -62 -211 -121q-76 -30 -100 -44t-35 -31h215l2 59h192l-8 -260h-678z" />
<glyph unicode="&#xbe;" horiz-adv-x="1984" d="M96 936l238 16q3 -65 26.5 -89.5t81.5 -24.5q88 0 88 63q0 71 -133 74v149q115 6 115 66q0 24 -21 38.5t-55 14.5q-41 0 -59 -18.5t-21 -63.5l-245 13q7 126 91.5 185.5t254.5 59.5q157 0 247.5 -57.5t90.5 -157.5q0 -45 -19 -77.5t-63 -63.5q60 -35 85 -74t25 -98 q0 -110 -98.5 -174t-267.5 -64q-355 0 -361 283zM438 0l938 1391h219l-938 -1391h-219zM1120 408l396 350h268v-361h86v-164h-86v-51h86v-182h-453v182h99v51h-342zM1352 397h164v144z" />
<glyph unicode="&#xbf;" horiz-adv-x="1300" d="M51 -49q0 117 65 207.5t175 137t244 42.5l20 90h262l25 -301h-13q-54 8 -108 8q-97 0 -153 -48.5t-56 -133.5q0 -74 47.5 -121t122.5 -47q77 0 119.5 43t42.5 121h403q-3 -179 -157 -287q-159 -111 -437 -111t-440 107.5t-162 292.5zM438 606v365h498v-365h-498z" />
<glyph unicode="&#xc0;" horiz-adv-x="1556" d="M23 0v334h104l262 723h-113v334h1002v-334h-113l267 -723h102v-334h-727v305h121l-54 174h-356l-59 -174h114v-305h-550zM342 1884h463l190 -358h-239zM573 653h248l-116 385h-5z" />
<glyph unicode="&#xc1;" horiz-adv-x="1556" d="M23 0v334h104l262 723h-113v334h1002v-334h-113l267 -723h102v-334h-727v305h121l-54 174h-356l-59 -174h114v-305h-550zM563 1526l191 358h463l-414 -358h-240zM573 653h248l-116 385h-5z" />
<glyph unicode="&#xc2;" horiz-adv-x="1556" d="M23 0v334h104l262 723h-113v334h1002v-334h-113l267 -723h102v-334h-727v305h121l-54 174h-356l-59 -174h114v-305h-550zM332 1524l209 362h479l207 -362h-285l-162 139l-164 -139h-284zM573 653h248l-116 385h-5z" />
<glyph unicode="&#xc3;" horiz-adv-x="1556" d="M23 0v334h104l262 723h-113v334h1002v-334h-113l267 -723h102v-334h-727v305h121l-54 174h-356l-59 -174h114v-305h-550zM338 1526q15 166 87 259t187 93q57 0 115 -22t106 -44t80 -22q35 0 55 21.5t31 68.5h222q-6 -164 -81.5 -260t-197.5 -96q-59 0 -114.5 22.5 t-100 45t-76.5 22.5q-35 0 -59 -23t-31 -65h-223zM573 653h248l-116 385h-5z" />
<glyph unicode="&#xc4;" horiz-adv-x="1556" d="M23 0v334h104l262 723h-113v334h1002v-334h-113l267 -723h102v-334h-727v305h121l-54 174h-356l-59 -174h114v-305h-550zM268 1741q0 76 55 130t132 54t130.5 -53.5t53.5 -130.5t-54 -132t-130 -55q-77 0 -132 55t-55 132zM573 653h248l-116 385h-5zM920 1741 q0 76 54.5 130t131.5 54q76 0 130 -53.5t54 -130.5t-54 -132t-130 -55t-131 55t-55 132z" />
<glyph unicode="&#xc5;" horiz-adv-x="1556" d="M23 0v334h104l262 723h-113v334h1002v-334h-113l267 -723h102v-334h-727v305h121l-54 174h-356l-59 -174h114v-305h-550zM537 1726q0 100 70.5 171t170.5 71t171 -71t71 -171t-71 -170.5t-171 -70.5t-170.5 70.5t-70.5 170.5zM573 653h248l-116 385h-5zM676 1726 q0 -43 29.5 -72.5t72.5 -29.5t73 29.5t30 72.5t-30 73t-73 30t-72.5 -30t-29.5 -73z" />
<glyph unicode="&#xc6;" horiz-adv-x="2240" d="M-27 0v334h82l387 723h-112v334h1800v-443h-365v109h-321v-213h276v-283h-276v-227h321v112h365v-446h-1333v334h108v227h-385l-112 -227h129v-334h-564zM647 827h250v277h-109z" />
<glyph unicode="&#xc7;" horiz-adv-x="1642" d="M100 696q0 206 88 371.5t244.5 258.5t351.5 93q116 0 219.5 -31.5t176.5 -89.5v93h333v-508h-346q-30 98 -92 150t-145 52q-109 0 -167 -90.5t-58 -296.5q0 -203 56.5 -299t176.5 -96q103 0 166.5 76.5t91.5 234.5l360 -129q-115 -487 -636 -508v-4q76 -9 124 -60.5 t48 -123.5q0 -95 -78 -147t-219 -52q-108 0 -201 19l14 121q14 -4 47 -4q54 0 78.5 14.5t24.5 46.5q0 45 -47 45q-15 0 -29 -2l20 96q57 47 123 47v4q-120 6 -222 34.5t-175 71t-131 100.5t-94 120t-60 132t-33.5 133.5t-9.5 127.5z" />
<glyph unicode="&#xc8;" d="M92 0v334h109v723h-109v334h1327v-445h-364v111h-316v-213h275v-283h-275v-227h316v110h364v-444h-1327zM332 1884h463l190 -358h-240z" />
<glyph unicode="&#xc9;" d="M92 0v334h109v723h-109v334h1327v-445h-364v111h-316v-213h275v-283h-275v-227h316v110h364v-444h-1327zM553 1526l190 358h463l-413 -358h-240z" />
<glyph unicode="&#xca;" d="M92 0v334h109v723h-109v334h1327v-445h-364v111h-316v-213h275v-283h-275v-227h316v110h364v-444h-1327zM322 1524l208 362h480l207 -362h-285l-162 139l-164 -139h-284z" />
<glyph unicode="&#xcb;" d="M92 0v334h109v723h-109v334h1327v-445h-364v111h-316v-213h275v-283h-275v-227h316v110h364v-444h-1327zM258 1741q0 76 54.5 130t131.5 54t131 -54t54 -130q0 -77 -54.5 -132t-130.5 -55t-131 55t-55 132zM909 1741q0 76 55 130t132 54q76 0 130 -53.5t54 -130.5 t-54 -132t-130 -55t-131.5 55t-55.5 132z" />
<glyph unicode="&#xcc;" horiz-adv-x="937" d="M33 1884h463l190 -358h-240zM72 0v334h129v723h-129v334h796v-334h-129v-723h129v-334h-796z" />
<glyph unicode="&#xcd;" horiz-adv-x="937" d="M72 0v334h129v723h-129v334h796v-334h-129v-723h129v-334h-796zM254 1526l190 358h463l-413 -358h-240z" />
<glyph unicode="&#xce;" horiz-adv-x="937" d="M23 1524l208 362h480l207 -362h-285l-162 139l-164 -139h-284zM72 0v334h129v723h-129v334h796v-334h-129v-723h129v-334h-796z" />
<glyph unicode="&#xcf;" horiz-adv-x="937" d="M-41 1741q0 76 54.5 130t131.5 54t131 -54t54 -130q0 -77 -54.5 -132t-130.5 -55t-131 55t-55 132zM72 0v334h129v723h-129v334h796v-334h-129v-723h129v-334h-796zM610 1741q0 76 55 130t132 54t130.5 -53.5t53.5 -130.5t-54 -132t-130 -55q-77 0 -132 55t-55 132z" />
<glyph unicode="&#xd0;" horiz-adv-x="1792" d="M90 0v334h109v225h-109v283h109v215h-109v334h797q189 0 340 -54.5t248 -151t148.5 -224.5t51.5 -277q0 -103 -24 -198t-80 -185t-139.5 -155.5t-211 -105.5t-286.5 -40h-844zM737 334h80q145 0 210 86t65 268q0 197 -73 283t-237 86h-45v-215h211v-283h-211v-225z" />
<glyph unicode="&#xd1;" horiz-adv-x="1748" d="M68 0v334h122v723h-122v334h659l506 -727h4v393h-117v334h561v-334h-120v-1080h-459l-584 846h-4v-489h125v-334h-571zM434 1526q15 166 87.5 259t187.5 93q57 0 115 -22t106 -44t80 -22q35 0 55 21.5t31 68.5h221q-6 -164 -81.5 -260t-197.5 -96q-59 0 -114.5 22.5 t-99.5 45t-76 22.5q-36 0 -60 -23t-31 -65h-223z" />
<glyph unicode="&#xd2;" horiz-adv-x="1771" d="M100 698q0 101 29 201t92 194.5t152.5 166.5t222 115.5t289.5 43.5q132 0 246.5 -30.5t198.5 -83.5t150 -123t106.5 -151.5t61.5 -165t21 -167.5t-21 -167.5t-61.5 -165t-106.5 -151.5t-150 -123t-198.5 -83.5t-246.5 -30.5q-157 0 -289.5 43.5t-222 115.5t-152.5 166.5 t-92 194.5t-29 201zM449 1884h462l191 -358h-240zM705 698q0 -208 37.5 -301.5t142.5 -93.5t142.5 93.5t37.5 301.5t-37.5 302t-142.5 94t-142.5 -94t-37.5 -302z" />
<glyph unicode="&#xd3;" horiz-adv-x="1771" d="M100 698q0 101 29 201t92 194.5t152.5 166.5t222 115.5t289.5 43.5q132 0 246.5 -30.5t198.5 -83.5t150 -123t106.5 -151.5t61.5 -165t21 -167.5t-21 -167.5t-61.5 -165t-106.5 -151.5t-150 -123t-198.5 -83.5t-246.5 -30.5q-157 0 -289.5 43.5t-222 115.5t-152.5 166.5 t-92 194.5t-29 201zM670 1526l190 358h463l-414 -358h-239zM705 698q0 -208 37.5 -301.5t142.5 -93.5t142.5 93.5t37.5 301.5t-37.5 302t-142.5 94t-142.5 -94t-37.5 -302z" />
<glyph unicode="&#xd4;" horiz-adv-x="1771" d="M100 698q0 101 29 201t92 194.5t152.5 166.5t222 115.5t289.5 43.5q132 0 246.5 -30.5t198.5 -83.5t150 -123t106.5 -151.5t61.5 -165t21 -167.5t-21 -167.5t-61.5 -165t-106.5 -151.5t-150 -123t-198.5 -83.5t-246.5 -30.5q-157 0 -289.5 43.5t-222 115.5t-152.5 166.5 t-92 194.5t-29 201zM438 1524l209 362h479l207 -362h-284l-162 139l-164 -139h-285zM705 698q0 -208 37.5 -301.5t142.5 -93.5t142.5 93.5t37.5 301.5t-37.5 302t-142.5 94t-142.5 -94t-37.5 -302z" />
<glyph unicode="&#xd5;" horiz-adv-x="1771" d="M100 698q0 101 29 201t92 194.5t152.5 166.5t222 115.5t289.5 43.5q132 0 246.5 -30.5t198.5 -83.5t150 -123t106.5 -151.5t61.5 -165t21 -167.5t-21 -167.5t-61.5 -165t-106.5 -151.5t-150 -123t-198.5 -83.5t-246.5 -30.5q-157 0 -289.5 43.5t-222 115.5t-152.5 166.5 t-92 194.5t-29 201zM444 1526q15 166 87.5 259t187.5 93q57 0 115 -22t106 -44t80 -22q35 0 55 21.5t31 68.5h221q-6 -164 -81 -260t-197 -96q-59 0 -114.5 22.5t-100 45t-76.5 22.5q-35 0 -59 -23t-31 -65h-224zM705 698q0 -208 37.5 -301.5t142.5 -93.5t142.5 93.5 t37.5 301.5t-37.5 302t-142.5 94t-142.5 -94t-37.5 -302z" />
<glyph unicode="&#xd6;" horiz-adv-x="1771" d="M100 698q0 101 29 201t92 194.5t152.5 166.5t222 115.5t289.5 43.5q132 0 246.5 -30.5t198.5 -83.5t150 -123t106.5 -151.5t61.5 -165t21 -167.5t-21 -167.5t-61.5 -165t-106.5 -151.5t-150 -123t-198.5 -83.5t-246.5 -30.5q-157 0 -289.5 43.5t-222 115.5t-152.5 166.5 t-92 194.5t-29 201zM375 1741q0 76 54.5 130t131.5 54t130.5 -53.5t53.5 -130.5t-54 -132t-130 -55t-131 55t-55 132zM705 698q0 -208 37.5 -301.5t142.5 -93.5t142.5 93.5t37.5 301.5t-37.5 302t-142.5 94t-142.5 -94t-37.5 -302zM1026 1741q0 76 54.5 130t131.5 54 t131 -54t54 -130q0 -77 -54.5 -132t-130.5 -55t-131 55t-55 132z" />
<glyph unicode="&#xd7;" horiz-adv-x="1366" d="M123 360l330 330l-330 330l229 229l330 -329l330 329l229 -229l-330 -330l330 -330l-229 -229l-330 330l-330 -330z" />
<glyph unicode="&#xd8;" horiz-adv-x="1771" d="M100 686q0 119 34 228.5t101.5 201t161.5 159.5t219.5 106t268.5 38q108 0 221.5 -26t181.5 -66l78 92l143 -110l-71 -86q233 -209 233 -537q0 -150 -57.5 -280.5t-159 -225t-249 -149t-320.5 -54.5q-227 0 -416 97l-80 -103l-143 115l73 94q-105 95 -162 225t-57 281z M705 698q0 -43 2 -61l315 375q-23 40 -54 61t-83 21q-100 0 -140 -94t-40 -302zM743 397q42 -94 142 -94q102 0 142 93t40 302q0 68 -2 82z" />
<glyph unicode="&#xd9;" horiz-adv-x="1492" d="M57 1057v334h713v-334h-68v-512q0 -39 2 -67t10 -63.5t23 -57.5t43.5 -38t67.5 -16q75 0 104 55t29 197v502h-70v334h523v-334h-109v-541q0 -261 -144.5 -400t-428.5 -139q-293 0 -440.5 135.5t-147.5 440.5v504h-107zM309 1884h463l191 -358h-240z" />
<glyph unicode="&#xda;" horiz-adv-x="1492" d="M57 1057v334h713v-334h-68v-512q0 -39 2 -67t10 -63.5t23 -57.5t43.5 -38t67.5 -16q75 0 104 55t29 197v502h-70v334h523v-334h-109v-541q0 -261 -144.5 -400t-428.5 -139q-293 0 -440.5 135.5t-147.5 440.5v504h-107zM530 1526l191 358h463l-414 -358h-240z" />
<glyph unicode="&#xdb;" horiz-adv-x="1492" d="M57 1057v334h713v-334h-68v-512q0 -39 2 -67t10 -63.5t23 -57.5t43.5 -38t67.5 -16q75 0 104 55t29 197v502h-70v334h523v-334h-109v-541q0 -261 -144.5 -400t-428.5 -139q-293 0 -440.5 135.5t-147.5 440.5v504h-107zM299 1524l209 362h479l207 -362h-285l-161 139 l-164 -139h-285z" />
<glyph unicode="&#xdc;" horiz-adv-x="1492" d="M57 1057v334h713v-334h-68v-512q0 -39 2 -67t10 -63.5t23 -57.5t43.5 -38t67.5 -16q75 0 104 55t29 197v502h-70v334h523v-334h-109v-541q0 -261 -144.5 -400t-428.5 -139q-293 0 -440.5 135.5t-147.5 440.5v504h-107zM236 1741q0 76 54.5 130t131.5 54q76 0 130 -53.5 t54 -130.5t-54 -132t-130 -55t-131 55t-55 132zM887 1741q0 76 54.5 130t131.5 54t130.5 -53.5t53.5 -130.5t-54 -132t-130 -55t-131 55t-55 132z" />
<glyph unicode="&#xdd;" horiz-adv-x="1492" d="M37 1057v334h727v-334h-82l145 -283l179 283h-84v334h534v-334h-88l-348 -502v-221h110v-334h-759v334h110v221l-350 502h-94zM530 1526l191 358h463l-414 -358h-240z" />
<glyph unicode="&#xde;" horiz-adv-x="1685" d="M90 0v184h135v1022h-135v185h809v-185h-135v-80h264q128 0 232 -23.5t173.5 -63.5t116 -96t67.5 -119.5t21 -135.5q0 -56 -13.5 -109.5t-51.5 -112t-97 -102t-160 -72t-231 -28.5h-321v-80h139v-184h-813zM764 569h147q164 0 164 127q0 65 -40.5 95t-139.5 30h-131v-252z " />
<glyph unicode="&#xdf;" horiz-adv-x="1622" d="M55 0v305h123v615q0 251 170 375t512 124q194 0 334.5 -39t219.5 -121t79 -202q0 -98 -60 -172.5t-163 -102.5v-4q272 -100 272 -362q0 -78 -24 -151.5t-74 -138.5t-139.5 -104.5t-206.5 -39.5q-126 0 -238 41v231q21 -6 41 -6q67 0 99 44t32 138q0 116 -44.5 166.5 t-153.5 56.5v228q72 0 113.5 38.5t41.5 104.5t-42.5 106.5t-110.5 40.5q-85 0 -119.5 -60.5t-34.5 -174.5v-631h72v-305h-699z" />
<glyph unicode="&#xe0;" d="M80 737q59 143 205 202.5t428 59.5q344 0 492.5 -82t148.5 -280v-332h127v-305h-631v86q-28 -25 -48.5 -39t-60 -31.5t-98.5 -25.5t-139 -8q-107 0 -190 26.5t-131 71t-71.5 96.5t-23.5 109q0 138 129 224.5t334 86.5q191 0 299 -51v88q0 67 -48.5 112.5t-139.5 45.5 q-122 0 -189 -95zM332 1473h463l190 -359h-240zM563 330q0 -68 41.5 -104t93.5 -36q87 0 152 58v176q-70 37 -141 37q-65 0 -105.5 -36.5t-40.5 -94.5z" />
<glyph unicode="&#xe1;" d="M80 737q59 143 205 202.5t428 59.5q344 0 492.5 -82t148.5 -280v-332h127v-305h-631v86q-28 -25 -48.5 -39t-60 -31.5t-98.5 -25.5t-139 -8q-107 0 -190 26.5t-131 71t-71.5 96.5t-23.5 109q0 138 129 224.5t334 86.5q191 0 299 -51v88q0 67 -48.5 112.5t-139.5 45.5 q-122 0 -189 -95zM553 1114l190 359h463l-413 -359h-240zM563 330q0 -68 41.5 -104t93.5 -36q87 0 152 58v176q-70 37 -141 37q-65 0 -105.5 -36.5t-40.5 -94.5z" />
<glyph unicode="&#xe2;" d="M80 737q59 143 205 202.5t428 59.5q344 0 492.5 -82t148.5 -280v-332h127v-305h-631v86q-28 -25 -48.5 -39t-60 -31.5t-98.5 -25.5t-139 -8q-107 0 -190 26.5t-131 71t-71.5 96.5t-23.5 109q0 138 129 224.5t334 86.5q191 0 299 -51v88q0 67 -48.5 112.5t-139.5 45.5 q-122 0 -189 -95zM322 1112l208 363h480l207 -363h-285l-162 139l-164 -139h-284zM563 330q0 -68 41.5 -104t93.5 -36q87 0 152 58v176q-70 37 -141 37q-65 0 -105.5 -36.5t-40.5 -94.5z" />
<glyph unicode="&#xe3;" d="M80 737q59 143 205 202.5t428 59.5q344 0 492.5 -82t148.5 -280v-332h127v-305h-631v86q-28 -25 -48.5 -39t-60 -31.5t-98.5 -25.5t-139 -8q-107 0 -190 26.5t-131 71t-71.5 96.5t-23.5 109q0 138 129 224.5t334 86.5q191 0 299 -51v88q0 67 -48.5 112.5t-139.5 45.5 q-122 0 -189 -95zM328 1114q15 166 87 259t187 93q57 0 115 -22t106 -44t80 -22q35 0 55 21.5t31 68.5h221q-6 -164 -81 -260t-197 -96q-59 0 -114.5 22.5t-100 45t-76.5 22.5q-35 0 -59 -23t-31 -65h-223zM563 330q0 -68 41.5 -104t93.5 -36q87 0 152 58v176 q-70 37 -141 37q-65 0 -105.5 -36.5t-40.5 -94.5z" />
<glyph unicode="&#xe4;" d="M80 737q59 143 205 202.5t428 59.5q344 0 492.5 -82t148.5 -280v-332h127v-305h-631v86q-28 -25 -48.5 -39t-60 -31.5t-98.5 -25.5t-139 -8q-107 0 -190 26.5t-131 71t-71.5 96.5t-23.5 109q0 138 129 224.5t334 86.5q191 0 299 -51v88q0 67 -48.5 112.5t-139.5 45.5 q-122 0 -189 -95zM258 1329q0 76 54.5 130t131.5 54t131 -54t54 -130q0 -77 -54.5 -131.5t-130.5 -54.5t-131 54.5t-55 131.5zM563 330q0 -68 41.5 -104t93.5 -36q87 0 152 58v176q-70 37 -141 37q-65 0 -105.5 -36.5t-40.5 -94.5zM909 1329q0 76 55 130t132 54 q76 0 130 -53.5t54 -130.5t-54 -131.5t-130 -54.5q-77 0 -132 55t-55 131z" />
<glyph unicode="&#xe5;" d="M80 737q59 143 205 202.5t428 59.5q344 0 492.5 -82t148.5 -280v-332h127v-305h-631v86q-28 -25 -48.5 -39t-60 -31.5t-98.5 -25.5t-139 -8q-107 0 -190 26.5t-131 71t-71.5 96.5t-23.5 109q0 138 129 224.5t334 86.5q191 0 299 -51v88q0 67 -48.5 112.5t-139.5 45.5 q-122 0 -189 -95zM526 1315q0 100 71 170.5t171 70.5t171 -70.5t71 -170.5t-71 -171t-171 -71t-171 71t-71 171zM563 330q0 -68 41.5 -104t93.5 -36q87 0 152 58v176q-70 37 -141 37q-65 0 -105.5 -36.5t-40.5 -94.5zM666 1315q0 -43 29.5 -73t72.5 -30t72.5 30t29.5 73 t-29.5 72.5t-72.5 29.5t-72.5 -29.5t-29.5 -72.5z" />
<glyph unicode="&#xe6;" horiz-adv-x="2197" d="M84 735q49 131 202 197.5t433 66.5q298 0 444 -92q64 39 155.5 65.5t178.5 26.5q150 0 270 -43.5t196.5 -120t116 -179t36.5 -222.5h-762q9 -235 178 -235q49 0 82 25.5t59 84.5l420 -51q-59 -138 -205 -212.5t-360 -74.5q-368 0 -537 183q-192 -183 -477 -183 q-192 0 -310 82t-118 219q0 135 129.5 223.5t331.5 88.5q177 0 303 -49q2 145 -35.5 200.5t-157.5 55.5q-69 0 -110 -22.5t-72 -70.5zM561 295q0 -58 39.5 -95.5t99.5 -37.5q82 0 150 53v170q-61 39 -145 39q-63 0 -103.5 -36t-40.5 -93zM1354 557h286q5 101 -32.5 160 t-112.5 59q-141 0 -141 -219z" />
<glyph unicode="&#xe7;" horiz-adv-x="1409" d="M90 477q0 142 75.5 259t208 184t294.5 67q180 0 317 -98v82h307v-414h-307q-62 170 -192 170q-86 0 -139.5 -70.5t-53.5 -181.5q0 -110 52.5 -177t140.5 -67q68 0 112.5 43.5t59.5 124.5l374 -84q-44 -151 -179 -239.5t-339 -98.5v-4q66 -15 108 -66t42 -118 q0 -95 -78 -147t-219 -52q-108 0 -201 19l14 121q14 -4 48 -4q54 0 78 14.5t24 46.5q0 45 -47 45q-15 0 -29 -2l21 96q44 38 98 47v4q-270 12 -430 147.5t-160 352.5z" />
<glyph unicode="&#xe8;" horiz-adv-x="1429" d="M90 479q0 232 173 376t450 144q97 0 184.5 -18t169 -60.5t140.5 -106.5t95 -161.5t37 -218.5h-764q1 -114 47.5 -174.5t131.5 -60.5q103 0 147 106l416 -49q-62 -137 -207 -211t-352 -74q-173 0 -305 41.5t-209.5 114t-115.5 161t-38 191.5zM279 1473h462l191 -359h-240z M582 561h284q6 104 -36 159.5t-109 55.5q-66 0 -105 -61.5t-34 -153.5z" />
<glyph unicode="&#xe9;" horiz-adv-x="1429" d="M90 479q0 232 173 376t450 144q97 0 184.5 -18t169 -60.5t140.5 -106.5t95 -161.5t37 -218.5h-764q1 -114 47.5 -174.5t131.5 -60.5q103 0 147 106l416 -49q-62 -137 -207 -211t-352 -74q-173 0 -305 41.5t-209.5 114t-115.5 161t-38 191.5zM500 1114l190 359h463 l-414 -359h-239zM582 561h284q6 104 -36 159.5t-109 55.5q-66 0 -105 -61.5t-34 -153.5z" />
<glyph unicode="&#xea;" horiz-adv-x="1429" d="M90 479q0 232 173 376t450 144q97 0 184.5 -18t169 -60.5t140.5 -106.5t95 -161.5t37 -218.5h-764q1 -114 47.5 -174.5t131.5 -60.5q103 0 147 106l416 -49q-62 -137 -207 -211t-352 -74q-173 0 -305 41.5t-209.5 114t-115.5 161t-38 191.5zM268 1112l209 363h479 l207 -363h-284l-162 139l-164 -139h-285zM582 561h284q6 104 -36 159.5t-109 55.5q-66 0 -105 -61.5t-34 -153.5z" />
<glyph unicode="&#xeb;" horiz-adv-x="1429" d="M90 479q0 232 173 376t450 144q97 0 184.5 -18t169 -60.5t140.5 -106.5t95 -161.5t37 -218.5h-764q1 -114 47.5 -174.5t131.5 -60.5q103 0 147 106l416 -49q-62 -137 -207 -211t-352 -74q-173 0 -305 41.5t-209.5 114t-115.5 161t-38 191.5zM205 1329q0 76 54.5 130 t131.5 54t130.5 -53.5t53.5 -130.5t-54 -131.5t-130 -54.5q-77 0 -131.5 54.5t-54.5 131.5zM582 561h284q6 104 -36 159.5t-109 55.5q-66 0 -105 -61.5t-34 -153.5zM856 1329q0 76 54.5 130t131.5 54t131 -54t54 -130q0 -77 -54.5 -131.5t-130.5 -54.5t-131 54.5t-55 131.5z " />
<glyph unicode="&#xec;" horiz-adv-x="831" d="M-20 1473h462l191 -359h-240zM72 0v305h100v361h-100v305h604v-666h84v-305h-688z" />
<glyph unicode="&#xed;" horiz-adv-x="831" d="M72 0v305h100v361h-100v305h604v-666h84v-305h-688zM201 1114l190 359h463l-414 -359h-239z" />
<glyph unicode="&#xee;" horiz-adv-x="831" d="M-31 1112l209 363h479l207 -363h-284l-162 139l-164 -139h-285zM72 0v305h100v361h-100v305h604v-666h84v-305h-688z" />
<glyph unicode="&#xef;" horiz-adv-x="831" d="M-94 1329q0 76 54.5 130t131.5 54q76 0 130 -53.5t54 -130.5t-54 -131.5t-130 -54.5t-131 54.5t-55 131.5zM72 0v305h100v361h-100v305h604v-666h84v-305h-688zM557 1329q0 76 54.5 130t131.5 54t131 -54t54 -130q0 -77 -54.5 -131.5t-130.5 -54.5q-77 0 -131.5 54.5 t-54.5 131.5z" />
<glyph unicode="&#xf0;" horiz-adv-x="1552" d="M96 496q0 145 76.5 261.5t201.5 179t273 62.5q155 0 234 -57l4 4q-12 56 -50 108.5t-81 86.5l-273 -90l-139 77l303 99q-79 45 -199 98l281 94q132 -17 262 -80l240 80l139 -78l-252 -81q142 -96 241 -266t99 -367q0 -316 -173 -486t-507 -170q-200 0 -354.5 65 t-240 184.5t-85.5 275.5zM606 483q0 -107 43.5 -166t122.5 -59q83 0 128.5 61t45.5 173q0 104 -44 162.5t-122 58.5q-83 0 -128.5 -60.5t-45.5 -169.5z" />
<glyph unicode="&#xf1;" horiz-adv-x="1642" d="M68 0v305h127v361h-127v305h630v-135q40 30 70.5 50t83 46.5t114.5 40.5t130 14q177 0 275.5 -98t98.5 -307v-277h115v-305h-618v508q0 151 -123 151q-73 0 -146 -49v-305h142v-305h-772zM381 1114q15 166 87 259t187 93q57 0 115 -22t106 -44t80 -22q35 0 55 21.5 t31 68.5h222q-6 -164 -81.5 -260t-197.5 -96q-59 0 -114.5 22.5t-100 45t-76.5 22.5q-35 0 -59 -23t-31 -65h-223z" />
<glyph unicode="&#xf2;" d="M88 485q0 98 37 182t101 144.5t150.5 103t186 63.5t205.5 21q97 0 190.5 -18t183 -58t157 -98t108.5 -146t41 -194q0 -98 -36.5 -181.5t-101 -144t-150.5 -103.5t-185.5 -64t-206.5 -21q-135 0 -256.5 33.5t-216.5 96t-151 162t-56 222.5zM332 1473h463l190 -359h-240z M598 483q0 -107 43.5 -166t122.5 -59q83 0 128.5 61t45.5 173q0 104 -44 162.5t-122 58.5q-83 0 -128.5 -60.5t-45.5 -169.5z" />
<glyph unicode="&#xf3;" d="M88 485q0 98 37 182t101 144.5t150.5 103t186 63.5t205.5 21q97 0 190.5 -18t183 -58t157 -98t108.5 -146t41 -194q0 -98 -36.5 -181.5t-101 -144t-150.5 -103.5t-185.5 -64t-206.5 -21q-135 0 -256.5 33.5t-216.5 96t-151 162t-56 222.5zM553 1114l190 359h463 l-413 -359h-240zM598 483q0 -107 43.5 -166t122.5 -59q83 0 128.5 61t45.5 173q0 104 -44 162.5t-122 58.5q-83 0 -128.5 -60.5t-45.5 -169.5z" />
<glyph unicode="&#xf4;" d="M88 485q0 98 37 182t101 144.5t150.5 103t186 63.5t205.5 21q97 0 190.5 -18t183 -58t157 -98t108.5 -146t41 -194q0 -98 -36.5 -181.5t-101 -144t-150.5 -103.5t-185.5 -64t-206.5 -21q-135 0 -256.5 33.5t-216.5 96t-151 162t-56 222.5zM322 1112l208 363h480l207 -363 h-285l-162 139l-164 -139h-284zM598 483q0 -107 43.5 -166t122.5 -59q83 0 128.5 61t45.5 173q0 104 -44 162.5t-122 58.5q-83 0 -128.5 -60.5t-45.5 -169.5z" />
<glyph unicode="&#xf5;" d="M88 485q0 98 37 182t101 144.5t150.5 103t186 63.5t205.5 21q97 0 190.5 -18t183 -58t157 -98t108.5 -146t41 -194q0 -98 -36.5 -181.5t-101 -144t-150.5 -103.5t-185.5 -64t-206.5 -21q-135 0 -256.5 33.5t-216.5 96t-151 162t-56 222.5zM328 1114q15 166 87 259t187 93 q57 0 115 -22t106 -44t80 -22q35 0 55 21.5t31 68.5h221q-6 -164 -81 -260t-197 -96q-59 0 -114.5 22.5t-100 45t-76.5 22.5q-35 0 -59 -23t-31 -65h-223zM598 483q0 -107 43.5 -166t122.5 -59q83 0 128.5 61t45.5 173q0 104 -44 162.5t-122 58.5q-83 0 -128.5 -60.5 t-45.5 -169.5z" />
<glyph unicode="&#xf6;" d="M88 485q0 98 37 182t101 144.5t150.5 103t186 63.5t205.5 21q97 0 190.5 -18t183 -58t157 -98t108.5 -146t41 -194q0 -98 -36.5 -181.5t-101 -144t-150.5 -103.5t-185.5 -64t-206.5 -21q-135 0 -256.5 33.5t-216.5 96t-151 162t-56 222.5zM258 1329q0 76 54.5 130 t131.5 54t131 -54t54 -130q0 -77 -54.5 -131.5t-130.5 -54.5t-131 54.5t-55 131.5zM598 483q0 -107 43.5 -166t122.5 -59q83 0 128.5 61t45.5 173q0 104 -44 162.5t-122 58.5q-83 0 -128.5 -60.5t-45.5 -169.5zM909 1329q0 76 55 130t132 54q76 0 130 -53.5t54 -130.5 t-54 -131.5t-130 -54.5q-77 0 -132 55t-55 131z" />
<glyph unicode="&#xf7;" horiz-adv-x="1368" d="M109 532v324h1148v-324h-1148zM498 274q0 76 54.5 130.5t131.5 54.5q76 0 130 -54t54 -131t-54 -131.5t-130 -54.5t-131 55t-55 131zM498 1116q0 76 54.5 130t131.5 54q76 0 130 -54t54 -130q0 -77 -54 -131.5t-130 -54.5t-131 55t-55 131z" />
<glyph unicode="&#xf8;" d="M88 487q0 149 85 265.5t238 181.5t347 65q199 0 364 -65l111 110l113 -79l-101 -101q60 -47 74 -63q129 -139 129 -318q0 -149 -85 -265.5t-239 -181.5t-350 -65q-190 0 -358 64l-109 -109l-112 80l96 96q-203 150 -203 385zM598 481q0 -13 4 -67l268 268q-42 31 -98 31 q-84 0 -129 -59t-45 -173zM668 287q45 -29 96 -29q82 0 128 62t46 172q0 15 -4 61z" />
<glyph unicode="&#xf9;" horiz-adv-x="1622" d="M47 666v305h621v-506q0 -81 26 -118.5t86 -37.5q84 0 154 45v312h-131v305h635v-666h116v-305h-620v123q-92 -66 -200 -103.5t-208 -37.5q-159 0 -260.5 103.5t-101.5 311.5v269h-117zM375 1473h463l190 -359h-240z" />
<glyph unicode="&#xfa;" horiz-adv-x="1622" d="M47 666v305h621v-506q0 -81 26 -118.5t86 -37.5q84 0 154 45v312h-131v305h635v-666h116v-305h-620v123q-92 -66 -200 -103.5t-208 -37.5q-159 0 -260.5 103.5t-101.5 311.5v269h-117zM596 1114l190 359h463l-413 -359h-240z" />
<glyph unicode="&#xfb;" horiz-adv-x="1622" d="M47 666v305h621v-506q0 -81 26 -118.5t86 -37.5q84 0 154 45v312h-131v305h635v-666h116v-305h-620v123q-92 -66 -200 -103.5t-208 -37.5q-159 0 -260.5 103.5t-101.5 311.5v269h-117zM365 1112l208 363h480l207 -363h-285l-162 139l-164 -139h-284z" />
<glyph unicode="&#xfc;" horiz-adv-x="1622" d="M47 666v305h621v-506q0 -81 26 -118.5t86 -37.5q84 0 154 45v312h-131v305h635v-666h116v-305h-620v123q-92 -66 -200 -103.5t-208 -37.5q-159 0 -260.5 103.5t-101.5 311.5v269h-117zM301 1329q0 76 54.5 130t131.5 54t131 -54t54 -130q0 -77 -54.5 -131.5t-130.5 -54.5 q-77 0 -131.5 54.5t-54.5 131.5zM952 1329q0 76 55 130t132 54t130.5 -53.5t53.5 -130.5t-54 -131.5t-130 -54.5q-77 0 -132 55t-55 131z" />
<glyph unicode="&#xfd;" horiz-adv-x="1343" d="M20 666v305h662v-305h-107l170 -381l154 381h-94v305h502v-305h-97l-530 -1112h-424v305h164l49 90l-373 717h-76zM457 1114l190 359h463l-414 -359h-239z" />
<glyph unicode="&#xfe;" horiz-adv-x="1642" d="M74 -141h116v1226h-116v306h620v-488q159 84 328 84q227 0 376.5 -144t149.5 -364q0 -224 -148.5 -360.5t-391.5 -136.5q-184 0 -314 79v-202h127v-305h-747v305zM694 483q0 -102 43.5 -158.5t122.5 -56.5q77 0 127.5 54.5t50.5 171.5q0 204 -172 204q-83 0 -127.5 -56.5 t-44.5 -158.5z" />
<glyph unicode="&#xff;" horiz-adv-x="1343" d="M20 666v305h662v-305h-107l170 -381l154 381h-94v305h502v-305h-97l-530 -1112h-424v305h164l49 90l-373 717h-76zM162 1329q0 76 54.5 130t131.5 54q76 0 130 -53.5t54 -130.5t-54 -131.5t-130 -54.5t-131 54.5t-55 131.5zM813 1329q0 76 54.5 130t131.5 54t131 -54 t54 -130q0 -77 -54.5 -131.5t-130.5 -54.5q-77 0 -131.5 54.5t-54.5 131.5z" />
<glyph unicode="&#x152;" horiz-adv-x="2367" d="M104 696q0 107 24 204t81.5 188t144.5 157t223 106t308 40h1366v-445h-365v111h-321v-213h276v-283h-276v-227h321v112h365v-446h-1381q-126 0 -232.5 23t-184 62t-138.5 94t-100 116.5t-64.5 131.5t-36 135.5t-10.5 133.5zM643 682q0 -161 72.5 -254.5t214.5 -93.5h96 v723h-86q-297 0 -297 -375z" />
<glyph unicode="&#x153;" horiz-adv-x="2283" d="M84 492q0 230 184.5 368.5t489.5 138.5q292 0 430 -108q62 52 170.5 80t228.5 28q283 0 447.5 -150.5t167.5 -414.5h-760q-7 -107 40.5 -171t133.5 -64q47 0 83 25t68 81l412 -53q-58 -124 -197.5 -202.5t-363.5 -78.5q-260 0 -430 92q-147 -92 -440 -92 q-152 0 -272 36.5t-191.5 92t-118.5 127.5t-64.5 137t-17.5 128zM594 483q0 -106 46 -165.5t128 -59.5t126 60.5t44 170.5q0 101 -46 162.5t-122 61.5q-82 0 -129 -62t-47 -168zM1442 557h287q0 102 -38.5 160.5t-105.5 58.5q-65 0 -102 -56.5t-41 -162.5z" />
<glyph unicode="&#x178;" horiz-adv-x="1492" d="M37 1057v334h727v-334h-82l145 -283l179 283h-84v334h534v-334h-88l-348 -502v-221h110v-334h-759v334h110v221l-350 502h-94zM236 1741q0 76 54.5 130t131.5 54q76 0 130 -53.5t54 -130.5t-54 -132t-130 -55t-131 55t-55 132zM887 1741q0 76 54.5 130t131.5 54 t130.5 -53.5t53.5 -130.5t-54 -132t-130 -55t-131 55t-55 132z" />
<glyph unicode="&#x2c6;" horiz-adv-x="681" d="M-106 1112l208 363h480l206 -363h-284l-162 139l-164 -139h-284z" />
<glyph unicode="&#x2dc;" horiz-adv-x="681" d="M-100 1114q15 166 87 259t187 93q57 0 115 -22t106 -44t80 -22q35 0 55 21.5t31 68.5h221q-6 -164 -81 -260t-197 -96q-59 0 -114.5 22.5t-100 45t-76.5 22.5q-35 0 -59 -23t-31 -65h-223z" />
<glyph unicode="&#x2000;" horiz-adv-x="984" />
<glyph unicode="&#x2001;" horiz-adv-x="1968" />
<glyph unicode="&#x2002;" horiz-adv-x="984" />
<glyph unicode="&#x2003;" horiz-adv-x="1968" />
<glyph unicode="&#x2004;" horiz-adv-x="656" />
<glyph unicode="&#x2005;" horiz-adv-x="492" />
<glyph unicode="&#x2006;" horiz-adv-x="328" />
<glyph unicode="&#x2007;" horiz-adv-x="328" />
<glyph unicode="&#x2008;" horiz-adv-x="246" />
<glyph unicode="&#x2009;" horiz-adv-x="393" />
<glyph unicode="&#x200a;" horiz-adv-x="109" />
<glyph unicode="&#x2010;" horiz-adv-x="917" d="M102 268v432h713v-432h-713z" />
<glyph unicode="&#x2011;" horiz-adv-x="917" d="M102 268v432h713v-432h-713z" />
<glyph unicode="&#x2012;" horiz-adv-x="917" d="M102 268v432h713v-432h-713z" />
<glyph unicode="&#x2013;" horiz-adv-x="1024" d="M-12 438v389h1048v-389h-1048z" />
<glyph unicode="&#x2014;" horiz-adv-x="2048" d="M-12 438v389h2072v-389h-2072z" />
<glyph unicode="&#x2018;" horiz-adv-x="811" d="M158 621v444q0 157 106.5 242.5t296.5 85.5q62 0 94 -4v-197q-110 0 -150 -44t-38 -163h188v-364h-497z" />
<glyph unicode="&#x2019;" horiz-adv-x="811" d="M156 623v196q110 0 150 44t38 163h-188v365h497v-445q0 -157 -106.5 -242.5t-296.5 -85.5q-54 0 -94 5z" />
<glyph unicode="&#x201a;" horiz-adv-x="811" d="M156 0v365h497v-445q0 -157 -106.5 -242.5t-296.5 -85.5q-54 0 -94 5v196q110 0 150 44t38 163h-188z" />
<glyph unicode="&#x201c;" horiz-adv-x="1472" d="M150 621v444q0 157 106.5 242.5t296.5 85.5q62 0 94 -4v-197q-110 0 -150 -44t-38 -163h188v-364h-497zM825 621v444q0 157 107 242.5t297 85.5q62 0 94 -4v-197q-110 0 -150 -44t-38 -163h188v-364h-498z" />
<glyph unicode="&#x201d;" horiz-adv-x="1472" d="M150 623v196q110 0 150 44t38 163h-188v365h497v-445q0 -157 -106.5 -242.5t-296.5 -85.5q-54 0 -94 5zM825 623v196q110 0 150.5 44t38.5 163h-189v365h498v-445q0 -157 -106.5 -242.5t-296.5 -85.5q-55 0 -95 5z" />
<glyph unicode="&#x201e;" horiz-adv-x="1472" d="M150 0v365h497v-445q0 -157 -106.5 -242.5t-296.5 -85.5q-54 0 -94 5v196q110 0 150 44t38 163h-188zM825 0v365h498v-445q0 -157 -106.5 -242.5t-296.5 -85.5q-55 0 -95 5v196q110 0 150.5 44t38.5 163h-189z" />
<glyph unicode="&#x2022;" horiz-adv-x="1024" d="M180 721q0 137 98 234.5t234 97.5t234 -97.5t98 -234.5t-98 -234.5t-234 -97.5t-234 97.5t-98 234.5z" />
<glyph unicode="&#x2026;" horiz-adv-x="2048" d="M90 0v365h498v-365h-498zM774 0v365h498v-365h-498zM1458 0v365h498v-365h-498z" />
<glyph unicode="&#x202f;" horiz-adv-x="393" />
<glyph unicode="&#x2039;" horiz-adv-x="831" d="M70 483l227 488h465l-232 -488l232 -483h-465z" />
<glyph unicode="&#x203a;" horiz-adv-x="831" d="M70 0l231 487l-231 484h465l227 -484l-227 -487h-465z" />
<glyph unicode="&#x205f;" horiz-adv-x="492" />
<glyph unicode="&#x20ac;" horiz-adv-x="1409" d="M25 477v160h98q-2 20 -2 59q0 45 2 68h-98v160h120q50 226 191 360.5t338 134.5q206 0 332 -100v72h280v-441h-291q-68 172 -198 172q-62 0 -113.5 -50.5t-79.5 -147.5h254v-160h-278q-2 -20 -2 -66q0 -41 2 -61h278v-160h-254q28 -98 79.5 -149.5t119.5 -51.5 q158 0 215 226l303 -94q-104 -426 -563 -426q-117 0 -213.5 28t-162.5 74t-115.5 112t-78 134t-45.5 147h-118z" />
<glyph unicode="&#x2122;" horiz-adv-x="1941" d="M23 1196v195h800v-195h-282v-621h-236v621h-282zM915 575v816h355l112 -447h4l117 447h352v-816h-225v576h-4l-149 -576h-185l-147 576h-4v-576h-226z" />
<glyph unicode="&#xe000;" horiz-adv-x="972" d="M0 0v973h973v-973h-973z" />
<glyph unicode="&#xfb01;" horiz-adv-x="1622" d="M51 0v305h127v361h-127v305h127q-7 123 33.5 210.5t125 139t199 75t267.5 23.5q536 0 635 -272l-490 -55q-7 46 -44 73t-91 27q-73 0 -105.5 -51.5t-25.5 -169.5h770v-666h115v-305h-699v305h80v361h-266v-361h80v-305h-711z" />
<glyph unicode="&#xfb02;" horiz-adv-x="1622" d="M51 0v305h127v361h-127v305h127q-10 232 147 340t461 108q132 0 293 -28h373v-1086h115v-305h-699v305h80v780q-8 47 -43.5 77t-85.5 30q-79 0 -111 -49t-26 -172h131v-305h-131v-361h80v-305h-711z" />
</font>
</defs>
</svg>
