<?xml version="1.0" standalone="no"?>
<!DOCTYPE svg PUBLIC "-//W3C//DTD SVG 1.1//EN" "http://www.w3.org/Graphics/SVG/1.1/DTD/svg11.dtd" >
<svg xmlns="http://www.w3.org/2000/svg">
<metadata></metadata>
<defs>
<font id="RockwellStdLightItalic" horiz-adv-x="1044" >
<font-face units-per-em="2048" ascent="1391" descent="-657" />
<missing-glyph horiz-adv-x="512" />
<glyph horiz-adv-x="0" />
<glyph horiz-adv-x="2048" />
<glyph unicode=" "  horiz-adv-x="512" />
<glyph unicode="&#x09;" horiz-adv-x="512" />
<glyph unicode="&#xa0;" horiz-adv-x="512" />
<glyph unicode="!" horiz-adv-x="491" d="M158 0l43 193h110l-43 -193h-110zM279 369l110 567l98 455h111l-90 -394l-180 -628h-49z" />
<glyph unicode="&#x22;" horiz-adv-x="575" d="M236 1200v213h114v-213l-28 -258h-58zM555 1200v213h115v-213l-29 -258h-57z" />
<glyph unicode="#" horiz-adv-x="1368" d="M299 430v92h188l82 398h-270v92h289l86 418h96l-86 -418h389l86 418h96l-86 -418h164v-92h-184l-80 -398h264v-92h-284l-91 -416h-96l90 416h-385l-90 -416h-96l90 416h-172zM584 522h389l80 398h-387z" />
<glyph unicode="$" horiz-adv-x="937" d="M106 387h91q-14 -126 37 -203.5t149 -105.5l137 594q-117 79 -168 157t-51 175q0 159 108 264.5t273 105.5l10 41h88l-12 -53q56 -14 102.5 -44t81 -78.5t43.5 -114.5t-10 -152h-86q30 125 -13.5 205.5t-135.5 101.5l-132 -565q141 -90 200 -175t59 -186 q0 -159 -121.5 -268.5t-306.5 -105.5l-37 -164h-88l38 176q-130 30 -206 141.5t-50 253.5zM399 1001q0 -63 34 -118t110 -115l121 520q-118 -3 -191.5 -84t-73.5 -203zM469 66h4q127 0 216 84t89 204q0 80 -41 136.5t-141 127.5z" />
<glyph unicode="%" horiz-adv-x="1898" d="M369 989q0 173 123 299.5t290 126.5q143 0 230.5 -82t87.5 -217q0 -173 -128.5 -300.5t-303.5 -127.5q-132 0 -215.5 84.5t-83.5 216.5zM393 0l1303 1391h90l-1305 -1391h-88zM453 989q0 -103 61.5 -165t165.5 -62q77 0 142.5 35.5t106.5 89.5t64 114t23 113 q0 103 -64 165t-168 62q-132 0 -231.5 -106t-99.5 -246zM1077 276q0 113 56.5 211.5t152 156.5t205.5 58q143 0 230 -82t87 -217q0 -173 -128.5 -300.5t-303.5 -127.5q-132 0 -215.5 84.5t-83.5 216.5zM1161 276q0 -103 62 -165t166 -62q77 0 142.5 35.5t106 89.5t63.5 114 t23 113q0 103 -63.5 165.5t-167.5 62.5q-132 0 -232 -106.5t-100 -246.5z" />
<glyph unicode="&#x26;" horiz-adv-x="1236" d="M141 358q0 70 23.5 141.5t70 141t128 126.5t186.5 87q-74 155 -74 270q0 123 84 206t207 83q109 0 181.5 -69.5t72.5 -172.5q0 -225 -332 -350l240 -502q141 187 196 365h232l-21 -86h-143q-52 -117 -102 -199t-123 -166l73 -147h179l-21 -86h-231l-78 154 q-180 -174 -377 -174q-157 0 -264 108.5t-107 269.5zM250 365q0 -126 77.5 -206.5t200.5 -80.5q169 0 320 160l-260 538q-338 -122 -338 -411zM584 1122q0 -103 63 -223q140 43 207.5 119t67.5 158q0 64 -45 107.5t-111 43.5q-78 0 -130 -58.5t-52 -146.5z" />
<glyph unicode="'" horiz-adv-x="448" d="M328 1200v213h114v-213l-28 -258h-58z" />
<glyph unicode="(" horiz-adv-x="768" d="M272 295q0 187 44.5 356t120 295.5t174.5 226t207 158.5t218 82l-22 -90q-283 -83 -465 -371t-182 -669q0 -197 61 -365.5t166 -261.5l-21 -92q-301 231 -301 731z" />
<glyph unicode=")" horiz-adv-x="768" d="M-172 -436l22 90q283 83 465.5 371t182.5 669q0 197 -61.5 365.5t-166.5 261.5l21 92q301 -231 301 -731q0 -187 -44.5 -356t-120 -295.5t-174.5 -226t-207 -158.5t-218 -82z" />
<glyph unicode="*" horiz-adv-x="1003" d="M250 1143l61 100l131 -82q6 -10 14.5 -21t16 -19.5t21.5 -19.5t22.5 -18t27.5 -19.5t27.5 -18.5t31.5 -20.5t32 -20.5q15 73 20 140.5t-4 98.5l35 148l115 -27l-33 -143q-25 -31 -48 -96t-34 -132q112 15 160 25.5t82 30.5l155 12l9 -115l-152 -16q-57 21 -116.5 23 t-137.5 -9q65 -162 133 -221l62 -139l-105 -45l-65 141q11 63 -70 250q-69 -64 -107.5 -108.5t-56.5 -86.5l-115 -100l-71 88l115 98q52 17 92.5 49t107.5 99q-142 92 -219 92z" />
<glyph unicode="+" horiz-adv-x="1366" d="M279 610v92h491v492h92v-492h492v-92h-492v-491h-92v491h-491z" />
<glyph unicode="," horiz-adv-x="491" d="M72 -260l16 70q23 3 40 16.5t29.5 38.5t21.5 49.5t21 62.5q5 15 7 23h-47l45 193h110l-49 -211q-27 -115 -69.5 -173.5t-124.5 -68.5z" />
<glyph unicode="-" horiz-adv-x="724" d="M145 430l21 86h567l-20 -86h-568z" />
<glyph unicode="." horiz-adv-x="491" d="M160 0l45 193h110l-45 -193h-110z" />
<glyph unicode="/" horiz-adv-x="575" d="M135 -18l479 1431h97l-480 -1431h-96z" />
<glyph unicode="0" d="M195 391q0 119 25.5 255.5t77.5 272.5t121.5 246t167 179t204.5 69q149 0 236 -111t87 -303q0 -88 -17 -195t-49 -222t-84 -222t-115 -192t-149 -136.5t-180 -51.5q-148 0 -236.5 112.5t-88.5 298.5zM293 399q0 -160 60.5 -246.5t172.5 -86.5q75 0 145 49.5t122.5 130.5 t95.5 182t70.5 206t42 200t14.5 167q0 155 -62.5 240.5t-175.5 85.5q-84 0 -162.5 -66.5t-135.5 -171t-100 -229.5t-65 -245.5t-22 -215.5z" />
<glyph unicode="1" d="M248 0l18 86h189l282 1219h-188l18 86h289l-301 -1305h166l-19 -86h-454z" />
<glyph unicode="2" d="M129 0q14 98 52.5 185.5t91 154t116.5 127t131 110.5t133 98t124.5 95t103 96t70.5 107.5t26 122.5q0 100 -61.5 165.5t-155.5 65.5q-128 0 -226 -118.5t-139 -323.5h-90q43 245 167.5 386.5t297.5 141.5q134 0 219.5 -88.5t85.5 -226.5q0 -73 -23.5 -138t-64.5 -117 t-95 -99.5t-116.5 -92t-126.5 -88.5t-127.5 -95t-117.5 -105.5t-98.5 -126t-69.5 -150.5h544l86 373h88l-106 -459h-719z" />
<glyph unicode="3" d="M190 444h91q-22 -186 57.5 -282t218.5 -96q59 0 118 23.5t108.5 66t80.5 110t31 146.5q0 131 -101.5 208t-263.5 60l23 90q207 -6 329 82.5t122 232.5q0 106 -69.5 174t-178.5 68q-222 0 -299 -301h-88q9 56 29 109.5t54 104.5t77.5 89t104 61t128.5 23q148 0 240 -90.5 t92 -235.5q0 -146 -87 -239.5t-251 -124.5v-4q116 -25 176.5 -110.5t60.5 -196.5q0 -54 -18 -113t-55 -116t-88 -102t-123 -73t-154 -28q-188 0 -293 128t-72 336z" />
<glyph unicode="4" d="M135 506l807 907h88l-213 -921h211l-18 -86h-211l-74 -320h158l-21 -86h-403l20 86h158l74 320h-539q-6 58 -37 100zM231 492h498l174 751l-4 4z" />
<glyph unicode="5" d="M178 246q-17 82 8 180h93q-18 -90 -5.5 -157.5t49 -112.5t85 -67.5t102.5 -22.5q100 0 189 63t142.5 167.5t53.5 221.5q0 113 -65 185.5t-166 72.5q-122 0 -236 -114q-39 39 -92 63l174 666h635l-80 -342h-88l59 256h-458l-140 -539l4 -4q100 100 242 100 q132 0 220.5 -100t88.5 -250q0 -139 -67.5 -262t-180.5 -196.5t-241 -73.5q-79 0 -148 33t-115 92t-63 141z" />
<glyph unicode="6" d="M242 379q0 127 39 303t114 349.5t162 260.5q66 66 128 93.5t132 27.5q103 0 171.5 -56t93 -149t8.5 -211h-93q15 157 -34.5 243.5t-155.5 86.5q-66 0 -126.5 -42.5t-103 -104.5t-81 -147.5t-60.5 -154.5t-41 -143l4 -4q75 77 144 111.5t147 34.5q138 0 230 -107t92 -268 q0 -141 -59.5 -261.5t-161 -190.5t-220.5 -70q-62 0 -119.5 24.5t-105 71.5t-76 125.5t-28.5 177.5zM360 575q-48 -233 17 -371t205 -138q86 0 163 60.5t122.5 161.5t45.5 214q0 129 -63.5 209t-167.5 80q-80 0 -168 -60.5t-154 -155.5z" />
<glyph unicode="7" d="M233 0l19 86h162q89 328 242 624.5t397 594.5h-617l-59 -254h-88l78 340h811l-17 -82q-232 -291 -393 -586t-252 -637h158l-19 -86h-422z" />
<glyph unicode="8" d="M182 317q0 65 19 129.5t57.5 125.5t105.5 107.5t154 65.5q-145 82 -145 250q0 172 115 295t276 123q146 0 238 -91.5t92 -234.5q0 -146 -78.5 -249t-210.5 -131v-5q168 -83 168 -278q0 -124 -60 -226.5t-161.5 -160t-221.5 -57.5q-151 0 -249.5 95.5t-98.5 241.5z M281 313q0 -111 71 -179t189 -68q143 0 236 103t93 249q0 120 -69 190t-187 70q-140 0 -236.5 -105t-96.5 -260zM465 999q0 -107 64 -171t169 -64q136 0 219.5 91t83.5 230q0 99 -61.5 170.5t-177.5 71.5q-72 0 -130.5 -30.5t-94 -79t-54 -105t-18.5 -113.5z" />
<glyph unicode="9" d="M227 395h92q-15 -157 35 -243t156 -86q55 0 106.5 28.5t91.5 79t74 109t61.5 129.5t45.5 128t33 117l-4 5q-75 -77 -144 -111.5t-147 -34.5q-138 0 -230 107t-92 268q0 215 129.5 368.5t310.5 153.5q62 0 119.5 -24.5t105 -71.5t76.5 -125.5t29 -177.5q0 -128 -39 -303.5 t-114 -349.5t-162 -261q-66 -66 -128 -93t-132 -27q-155 0 -226 117t-47 298zM403 891q0 -129 64 -209t168 -80q80 0 167.5 60t153.5 155q48 233 -17 371.5t-204 138.5q-86 0 -163 -60.5t-123 -161.5t-46 -214z" />
<glyph unicode=":" horiz-adv-x="491" d="M160 0l45 193h110l-45 -193h-110zM338 776l45 193h111l-45 -193h-111z" />
<glyph unicode=";" horiz-adv-x="491" d="M72 -260l16 70q23 3 40 16.5t29.5 38.5t21.5 49.5t21 62.5q5 15 7 23h-47l45 193h110l-49 -211q-27 -115 -69.5 -173.5t-124.5 -68.5zM338 776l45 193h111l-45 -193h-111z" />
<glyph unicode="&#x3c;" horiz-adv-x="1366" d="M279 616v82l1073 457v-102l-949 -396l949 -395v-102z" />
<glyph unicode="=" horiz-adv-x="1366" d="M279 381v92h1075v-92h-1075zM279 846v92h1075v-92h-1075z" />
<glyph unicode="&#x3e;" horiz-adv-x="1366" d="M281 160v102l948 395l-948 396v102l1073 -457v-82z" />
<glyph unicode="?" horiz-adv-x="897" d="M285 0l45 193h110l-45 -193h-110zM319 1098q37 149 136 232t239 83q143 0 232.5 -87t89.5 -226q0 -94 -40 -180t-104.5 -145t-152 -89t-176.5 -16l-90 -308h-47l69 408q110 -32 213 3t166.5 124t63.5 205q0 101 -66.5 163t-173.5 62q-98 0 -169 -59.5t-103 -169.5h-87z " />
<glyph unicode="@" horiz-adv-x="1642" d="M152 514q0 144 36.5 275t109.5 242t175.5 192.5t243 127.5t303.5 46q160 0 290.5 -47t213 -121.5t139 -172.5t79.5 -194.5t23 -193.5q0 -179 -73.5 -331t-206.5 -249q-56 -40 -120 -64t-116 -24q-58 0 -87.5 22.5t-32 62t5.5 93.5l-5 4q-81 -95 -161.5 -138.5 t-173.5 -43.5q-151 0 -248.5 119.5t-97.5 302.5q0 110 36.5 219t100.5 198t161 144t209 55q200 0 306 -192l38 168h123l-180 -848q-15 -76 45 -76q39 0 89.5 23.5t104 72.5t98 115.5t73 163t28.5 203.5q0 92 -21 180t-70.5 173.5t-124 149t-191 103t-260.5 39.5 q-225 0 -402.5 -102t-276.5 -284.5t-99 -414.5q0 -230 98.5 -407t277.5 -274t412 -97q215 0 391.5 81.5t278.5 231.5h102q-116 -197 -324 -295t-450 -98q-193 0 -355 62.5t-275.5 174.5t-176.5 272t-63 351zM575 416q0 -139 73 -230.5t183 -91.5q79 0 153 56t123.5 141 t79.5 186t30 191q0 125 -72 204.5t-184 79.5q-93 0 -170 -55t-122 -138.5t-69.5 -173.5t-24.5 -169z" />
<glyph unicode="A" horiz-adv-x="1343" d="M-39 0l21 86h176l645 1219h-180l20 86h604l-20 -86h-160l139 -1219h180l-20 -86h-467l21 86h176l-49 440h-555l-230 -440h172l-20 -86h-453zM539 612h501l-75 709h-56z" />
<glyph unicode="B" horiz-adv-x="1130" d="M29 0l20 86h135l281 1219h-166l20 86h469q93 0 165 -27.5t115 -75.5t65 -107t22 -126q0 -129 -76.5 -218.5t-214.5 -123.5v-4q197 -87 197 -306q0 -181 -128 -292t-333 -111h-571zM295 86h291q99 0 180.5 34.5t133.5 108t52 174.5q0 121 -79.5 201t-217.5 80h-223z M453 770h262q75 0 135 19t98 49t63.5 69.5t35.5 78t10 77.5q0 111 -74 176.5t-209 65.5h-199z" />
<glyph unicode="C" horiz-adv-x="1515" d="M217 571q0 134 45 262t126.5 231.5t189 182.5t240.5 122.5t272 43.5q150 0 258 -57t165 -166l48 201h88l-88 -381h-72q-25 149 -130.5 233t-268.5 84q-152 0 -293 -61.5t-244 -163.5t-165 -242t-62 -291q0 -224 133 -363.5t348 -139.5q154 0 286.5 69.5t254.5 216.5 l65 -57q-105 -146 -267.5 -230.5t-334.5 -84.5q-123 0 -224.5 34.5t-169 92t-113.5 134.5t-66.5 159.5t-20.5 170.5z" />
<glyph unicode="D" horiz-adv-x="1429" d="M29 0l20 86h146l280 1219h-156l21 86h496q281 0 452.5 -160t171.5 -434q0 -158 -56.5 -303t-155.5 -254.5t-245.5 -174.5t-316.5 -65h-657zM305 86h357q143 0 261.5 45.5t196 118.5t131.5 168t77.5 191.5t23.5 191.5q0 83 -20 157t-63 138t-105.5 110t-151.5 72.5 t-197 26.5h-229z" />
<glyph unicode="E" horiz-adv-x="1216" d="M27 0l18 86h143l283 1219h-156l19 86h997l-98 -426h-86l78 340h-643l-127 -549h512l-21 -86h-512l-135 -584h655l78 338h86l-96 -424h-995z" />
<glyph unicode="F" horiz-adv-x="1110" d="M27 0l20 86h148l280 1219h-147l20 86h950l-96 -414h-86l76 328h-606l-125 -545h477l-20 -86h-478l-135 -588h168l-20 -86h-426z" />
<glyph unicode="G" horiz-adv-x="1579" d="M211 561q0 112 32.5 221t89.5 202.5t138.5 173t176.5 136t206 88t225 31.5q336 0 486 -231l49 209h86l-88 -381h-72q-100 317 -450 317q-151 0 -293.5 -62.5t-247 -166.5t-167.5 -246t-63 -293q0 -218 144.5 -355.5t372.5 -137.5q217 0 378 128.5t218 344.5h-379l20 86 h490q-19 -104 -56.5 -193.5t-85.5 -154.5t-107.5 -116.5t-120.5 -85t-128 -55.5t-127 -31t-119 -9q-270 0 -439 161.5t-169 419.5z" />
<glyph unicode="H" horiz-adv-x="1343" d="M33 0l20 86h137l281 1219h-154l21 86h414l-21 -86h-149l-123 -531h715l122 531h-147l20 86h369l-20 -86h-111l-281 -1219h152l-21 -86h-409l20 86h148l139 602h-715l-139 -602h158l-21 -86h-405z" />
<glyph unicode="I" horiz-adv-x="532" d="M29 0l20 86h148l280 1219h-147l20 86h373l-21 -86h-114l-281 -1219h150l-21 -86h-407z" />
<glyph unicode="J" horiz-adv-x="575" d="M-178 -436l20 90h33q58 0 107.5 14t84.5 34.5t64.5 56t47.5 67t35 79t26 80.5t20 83l285 1237h-144l19 86h381l-21 -86h-123l-286 -1237q-49 -217 -127 -329t-226 -155q-77 -22 -145 -22q-33 0 -51 2z" />
<glyph unicode="K" horiz-adv-x="1216" d="M41 0l20 86h129l281 1219h-158l21 86h414l-21 -86h-145l-281 -1219h145l-20 -86h-385zM467 723l721 577v5h-199l21 86h446l-20 -86h-99l-725 -582l492 -637h125l-21 -86h-417l20 86h143z" />
<glyph unicode="L" d="M14 0l19 86h157l283 1219h-168l21 86h440l-21 -86h-161l-281 -1219h578l112 487h105l-131 -573h-953z" />
<glyph unicode="M" horiz-adv-x="1685" d="M37 0l20 86h133l283 1219h-145l20 86h320l182 -1155l715 1155h350l-21 -86h-157l-283 -1219h160l-21 -86h-415l20 86h148l284 1219h-16l-811 -1317h-27l-192 1317h-17l-284 -1219h143l-20 -86h-369z" />
<glyph unicode="N" horiz-adv-x="1386" d="M8 0l21 86h157l281 1219h-170l20 86h326l461 -1235h4l264 1149h-158l21 86h397l-20 -86h-152l-305 -1317h-104l-486 1317h-4l-278 -1219h149l-20 -86h-404z" />
<glyph unicode="O" horiz-adv-x="1556" d="M221 543q0 130 37.5 257t110 237t169.5 194.5t224.5 133t267.5 48.5q265 0 421.5 -153.5t156.5 -413.5q0 -117 -33 -237.5t-102.5 -233.5t-165 -201t-231.5 -141t-292 -53q-141 0 -250.5 45t-176.5 124t-101.5 179t-34.5 215zM330 539q0 -214 124 -343.5t328 -129.5 q113 0 215.5 35.5t179.5 95.5t139 139t101.5 167t60.5 177.5t21 173.5q0 71 -17 138t-54.5 128t-91.5 107t-134 73t-176 27q-115 0 -223 -44t-192.5 -120.5t-148.5 -176t-98 -215t-34 -232.5z" />
<glyph unicode="P" d="M16 0l21 86h147l281 1219h-148l21 86h416q189 0 300 -103t111 -278q0 -58 -14.5 -115.5t-51 -117t-91.5 -104.5t-144 -73.5t-200 -28.5h-256l-113 -485h172l-21 -86h-430zM426 657h244q87 0 156 21.5t111.5 56.5t70 82t38.5 94.5t11 98.5q0 134 -75.5 214.5t-223.5 80.5 h-183z" />
<glyph unicode="Q" horiz-adv-x="1556" d="M221 545q0 122 35 245t105 234.5t165.5 198.5t226.5 138.5t277 51.5q264 0 421 -154t157 -413q0 -117 -33 -236t-100.5 -229.5t-160.5 -197.5t-223.5 -142t-279.5 -61h-6v-5q51 -16 100.5 -42.5t78 -46t73.5 -39t89 -23.5q14 -1 32 -1q37 0 90 5l-66 -90q-28 -6 -57 -6 q-32 0 -65 8q-62 14 -116.5 44.5t-108 63t-115.5 56.5t-119 24q-98 0 -201 -65l-39 67q54 39 85.5 54t92.5 28v4q-165 56 -251.5 202.5t-86.5 326.5zM330 539q0 -215 125.5 -344t320.5 -129q99 0 190 26.5t162.5 72.5t132.5 108.5t104 133.5t73.5 148t45.5 152.5t15 146.5 q0 68 -16.5 134t-53 128t-89.5 108.5t-133 74.5t-177 28q-146 0 -278.5 -69t-223.5 -180t-144.5 -253t-53.5 -286z" />
<glyph unicode="R" horiz-adv-x="1130" d="M29 0l20 86h135l281 1219h-150l21 86h500q77 0 138.5 -17.5t102.5 -47.5t68 -71.5t39 -87.5t12 -98q0 -157 -94.5 -254.5t-263.5 -116.5l131 -612h180l-21 -86h-254l-147 698h-291l-141 -612h151l-20 -86h-397zM455 784h325q68 0 123 18.5t88.5 48t55.5 68.5t31 76.5 t9 75.5q0 43 -12 80.5t-39.5 74t-83 58t-133.5 21.5h-244z" />
<glyph unicode="S" horiz-adv-x="980" d="M55 0l86 377h86l-37 -164q153 -147 324 -147q131 0 224 84t93 204q0 65 -29 120t-75.5 95t-103 77.5t-113 76.5t-103 83t-75.5 106.5t-29 138.5q0 159 106.5 260.5t268.5 101.5q95 0 177 -32.5t173 -104.5l25 115h88l-86 -381h-88l39 168q-146 149 -328 149 q-125 0 -203 -72.5t-78 -187.5q0 -62 23.5 -108.5t68 -83t93 -67t114.5 -77.5t117 -98q68 -68 92.5 -127.5t24.5 -138.5q0 -163 -121.5 -275t-298.5 -112q-184 0 -342 139l-27 -119h-86z" />
<glyph unicode="T" horiz-adv-x="1110" d="M211 872l121 519h1016l-121 -519h-88l100 433h-365l-282 -1219h156l-19 -86h-422l19 86h155l283 1219h-365l-100 -433h-88z" />
<glyph unicode="U" horiz-adv-x="1259" d="M242 248q-6 28 -5 59q0 47 13 101l207 897h-148l21 86h405l-20 -86h-148l-215 -932q-8 -35 -8 -68q0 -35 9 -65q18 -60 62 -97t104.5 -57t129.5 -20q140 0 243 85t144 265l205 889h-145l20 86h395l-20 -86h-139l-215 -936q-44 -190 -185 -289.5t-321 -99.5 q-65 0 -127 15.5t-118.5 48.5t-93 83.5t-50.5 120.5z" />
<glyph unicode="V" horiz-adv-x="1323" d="M227 1305l21 86h426l-21 -86h-153l75 -1153h9l762 1153h-187l21 86h440l-21 -86h-145l-874 -1330h-93l-96 1330h-164z" />
<glyph unicode="W" horiz-adv-x="1984" d="M236 1305l20 86h440l-20 -86h-164l39 -1143h4l631 1143h-185l21 86h475l-20 -86h-129l22 -1143h4l621 1143h-154l21 86h366l-18 -86h-113l-731 -1330h-84l-20 1330h-5l-710 -1330h-84l-57 1330h-170z" />
<glyph unicode="X" horiz-adv-x="1259" d="M-8 0l20 86h115l561 627l-229 592h-144l21 86h395l-20 -86h-131l194 -502l453 502h-162l20 86h402l-21 -86h-123l-528 -592l240 -627h131l-21 -86h-391l21 86h139l-203 535l-487 -535h149l-20 -86h-381z" />
<glyph unicode="Y" horiz-adv-x="1216" d="M215 1305l18 86h439l-19 -86h-166l222 -572l505 572h-182l19 86h440l-18 -86h-140l-592 -672l-127 -547h168l-18 -86h-447l19 86h168l127 547l-260 672h-156z" />
<glyph unicode="Z" horiz-adv-x="1130" d="M82 0l20 86l1028 1219h-636l-76 -332h-86l96 418h858l-20 -86l-1022 -1219h684l80 352h86l-101 -438h-911z" />
<glyph unicode="[" horiz-adv-x="575" d="M96 -412l416 1803h352l-18 -86h-252l-379 -1631h252l-18 -86h-353z" />
<glyph unicode="\" horiz-adv-x="575" d="M135 1413h96l480 -1431h-97z" />
<glyph unicode="]" horiz-adv-x="575" d="M-115 -412l19 86h252l379 1631h-252l18 86h352l-415 -1803h-353z" />
<glyph unicode="^" horiz-adv-x="1343" d="M358 879l447 536l448 -536l-65 -56l-383 461l-385 -461z" />
<glyph unicode="_" horiz-adv-x="1024" d="M-12 -154h1048v-102h-1048v102z" />
<glyph unicode="`" horiz-adv-x="681" d="M240 1411h122l203 -321h-76z" />
<glyph unicode="a" d="M152 254q0 138 110.5 227.5t280.5 89.5q163 0 311 -86l51 207q6 26 6 49q-1 65 -49 109q-66 58 -172 59q-94 0 -163.5 -38t-135.5 -126l-78 35q82 110 173.5 160.5t211.5 50.5q69 0 128.5 -17.5t107.5 -56.5q50 -39 66 -101q8 -31 8 -68q0 -38 -9 -84l-137 -578h144 l-19 -86h-231l35 152l-5 4q-84 -81 -177 -125.5t-177 -44.5q-118 0 -199 77.5t-81 190.5zM250 258q0 -82 58 -134t149 -52q145 0 342 170l39 172q-65 37 -147.5 59.5t-158.5 22.5q-115 0 -198.5 -70.5t-83.5 -167.5z" />
<glyph unicode="b" horiz-adv-x="1193" d="M25 0l18 86h137l283 1219h-156l19 86h256l-121 -527l4 -4q155 131 350 131q172 0 284.5 -117.5t112.5 -310.5q0 -97 -32 -187t-86.5 -160t-124.5 -122.5t-150.5 -80t-159.5 -27.5q-95 0 -180.5 41.5t-179.5 132.5l-37 -160h-237zM322 256q163 -184 340 -184q116 0 221 69 t168 183t63 239q0 154 -88 248t-233 94q-97 0 -191 -46t-172 -132z" />
<glyph unicode="c" horiz-adv-x="980" d="M145 387q0 111 32.5 209.5t86 169t121 122.5t140 77.5t141.5 25.5q102 0 176 -41t129 -131l35 150h84l-68 -293h-84q-29 110 -102 169.5t-177 59.5q-111 0 -206.5 -70.5t-152 -191.5t-56.5 -262q0 -139 84 -229.5t213 -90.5q188 0 333 187l68 -51q-69 -102 -177.5 -162 t-223.5 -60q-177 0 -286.5 113t-109.5 299z" />
<glyph unicode="d" horiz-adv-x="1193" d="M158 416q0 109 35 204.5t92.5 162t130 114.5t147.5 71t146 23q100 0 194 -42t166 -134l115 490h-168l18 86h269l-302 -1305h156l-20 -86h-256l28 115l-4 4q-158 -133 -334 -133q-131 0 -226.5 60.5t-141 156.5t-45.5 213zM256 414q0 -154 89.5 -248t236.5 -94 q192 0 358 178l109 475q-89 98 -164 139t-166 41q-90 0 -174.5 -37.5t-148 -101.5t-102 -156.5t-38.5 -195.5z" />
<glyph unicode="e" horiz-adv-x="1087" d="M156 412q0 155 73 288.5t196.5 212t266.5 78.5q89 0 166 -33.5t134 -96.5t82 -165q15 -59 14 -127q0 -49 -7 -102h-827q-3 -30 -3 -59q0 -138 76 -233q92 -114 255 -114q187 0 323 168l92 -36q-169 -218 -415 -218q-192 0 -309 120t-117 317zM272 543h725q1 18 1 35 q0 147 -76 232q-86 95 -230 95q-151 0 -269.5 -102t-150.5 -260z" />
<glyph unicode="f" horiz-adv-x="491" d="M16 0l21 86h151l183 797h-150l19 86h151l33 137q74 307 301 307q46 0 82 -12t104 -45l-37 -74q-83 45 -153 45q-75 0 -124.5 -59t-78.5 -185l-26 -114h157l-20 -86h-156l-184 -797h157l-20 -86h-410z" />
<glyph unicode="g" horiz-adv-x="1173" d="M61 -289l48 70q155 -146 354 -146q84 0 162 31t135 88q55 55 86.5 135t60.5 215l-4 5q-66 -63 -155.5 -98.5t-180.5 -35.5q-185 0 -298 116t-113 308q0 159 70.5 294t199 216.5t287.5 81.5q184 0 358 -180l35 158h248l-19 -86h-147l-209 -901q-46 -192 -141 -287 q-76 -76 -177.5 -111t-199.5 -35q-118 0 -221.5 42t-178.5 120zM254 406q0 -155 89.5 -250t234.5 -95q91 0 184.5 46t175.5 131l109 475q-86 101 -165.5 146.5t-170.5 45.5q-103 0 -191.5 -45.5t-145 -118.5t-88.5 -160.5t-32 -174.5z" />
<glyph unicode="h" horiz-adv-x="1067" d="M23 0l20 86h143l281 1219h-156l21 86h256l-129 -557q220 157 360 157q54 0 100 -19.5t78 -57t43 -92.5q5 -23 4 -49q0 -36 -8 -77l-137 -610h162l-21 -86h-413l20 86h152l137 610q8 38 8 69q0 57 -28 89q-44 50 -115 50.5t-160.5 -46t-204.5 -125.5l-149 -647h153 l-20 -86h-397z" />
<glyph unicode="i" horiz-adv-x="491" d="M31 0l18 86h154l184 797h-158l21 86h258l-205 -883h156l-19 -86h-409zM461 1339q0 31 21.5 52.5t52.5 21.5t52 -21.5t21 -52.5t-21 -52t-52 -21t-52.5 21t-21.5 52z" />
<glyph unicode="j" horiz-adv-x="425" d="M-182 -406l18 82q40 -8 74 -8q20 0 38 3q50 7 89 39.5t68.5 95.5t52.5 163l211 914h-148l21 86h247l-245 -1059q-23 -97 -63 -165.5t-84 -102t-97 -48.5q-48 -13 -87 -13q-5 0 -9 1q-42 1 -86 12zM432 1339q0 31 21.5 52.5t52.5 21.5t52.5 -21.5t21.5 -52.5t-21.5 -52 t-52.5 -21t-52.5 21t-21.5 52z" />
<glyph unicode="k" horiz-adv-x="960" d="M23 0l20 86h141l281 1219h-156l21 86h256l-203 -883l537 371v4h-203l18 86h455l-19 -86h-135l-547 -385l324 -412h180l-20 -86h-213l-381 498l-94 -412h170l-21 -86h-411z" />
<glyph unicode="l" horiz-adv-x="491" d="M31 0l20 86h154l280 1219h-153l20 86h254l-301 -1305h150l-21 -86h-403z" />
<glyph unicode="m" horiz-adv-x="1685" d="M25 0l20 86h145l185 797h-148l19 86h237l-37 -156l5 -4q104 91 195 136.5t183 45.5q167 0 220 -172q112 85 202 128.5t189 43.5q47 0 90 -17.5t78.5 -55t47.5 -95.5q5 -24 4 -53q0 -39 -9 -86l-135 -598h167l-20 -86h-424l21 86h155l137 606q9 39 9 71q-1 54 -27 88 q-42 54 -119 54q-133 0 -364 -168l-148 -651h156l-21 -86h-411l20 86h156l139 616q7 32 7 59q0 54 -29 90q-44 54 -117 54q-71 0 -155 -43t-212 -141l-145 -635h155l-20 -86h-401z" />
<glyph unicode="n" horiz-adv-x="1067" d="M20 0l21 86h143l185 797h-158l20 86h258l-32 -138q121 85 206 122.5t164 37.5q52 0 96 -21t74.5 -61.5t40.5 -100.5q3 -22 3 -46q0 -43 -11 -94l-133 -582h160l-21 -86h-413l20 86h154l141 614q8 33 8 61q0 51 -24 87q-38 57 -125 57q-69 0 -153 -42t-210 -134l-149 -643 h149l-20 -86h-394z" />
<glyph unicode="o" horiz-adv-x="1110" d="M162 385q0 135 49 250.5t129.5 192t183 120t211.5 43.5q174 0 286 -113t112 -307q0 -161 -76.5 -298.5t-207 -217.5t-282.5 -80q-98 0 -176.5 34t-127.5 92t-75 130.5t-26 153.5zM260 387q0 -145 88.5 -235.5t229.5 -90.5q121 0 226.5 70t167.5 187t62 251 q0 151 -87 243.5t-228 92.5q-124 0 -229.5 -69t-167.5 -188.5t-62 -260.5z" />
<glyph unicode="p" horiz-adv-x="1193" d="M-88 -434l18 86h138l284 1231h-155l20 86h256l-29 -115l5 -4q163 141 342 141t294 -123.5t115 -310.5q0 -157 -76.5 -291t-207 -212.5t-283.5 -78.5q-92 0 -172.5 41t-175.5 136l-117 -500h166l-19 -86h-403zM307 248q166 -187 332 -187q123 0 230 67t170 180.5t63 244.5 q0 168 -94 260t-230 92q-189 0 -362 -182z" />
<glyph unicode="q" horiz-adv-x="1193" d="M160 397q0 157 75 294t204 218.5t278 81.5q96 0 180 -43.5t174 -136.5l37 158h248l-21 -86h-147l-285 -1231h148l-19 -86h-395l18 86h148l106 450l-4 4q-64 -60 -154.5 -95.5t-177.5 -35.5q-186 0 -299.5 116t-113.5 306zM258 399q0 -154 88 -246t236 -92q174 0 358 175 l109 477q-87 96 -167 144t-163 48q-123 0 -228.5 -66.5t-169 -183.5t-63.5 -256z" />
<glyph unicode="r" horiz-adv-x="747" d="M23 0l20 86h160l182 797h-176l20 86h277l-64 -275l4 -4q121 179 235 243q101 57 247 57q18 0 37 -1l-23 -98q-18 1 -36 1q-90 0 -170 -29q-96 -35 -164.5 -100t-116 -146t-68.5 -171l-84 -360h164l-21 -86h-423z" />
<glyph unicode="s" horiz-adv-x="831" d="M49 0l62 270h86q-1 -9 -1 -18q0 -48 32 -89q38 -49 101 -75.5t134 -26.5q99 0 171.5 56t72.5 131q0 50 -27 90.5t-70.5 68t-96 52.5t-105 51t-96 55.5t-70.5 74.5t-27 101q0 102 84.5 176t226.5 74q103 0 168.5 -30t130.5 -95l23 103h88l-64 -262h-84q2 12 2 23 q0 34 -16 63q-22 39 -62 62.5t-89.5 36.5t-100.5 13q-100 0 -156.5 -42.5t-56.5 -110.5q0 -40 27 -73.5t70.5 -58.5t96 -49t105 -52.5t96 -62t70.5 -85t27 -115.5q0 -119 -98 -200t-246 -81q-183 0 -295 144l-27 -119h-86z" />
<glyph unicode="t" horiz-adv-x="555" d="M202 144q-3 14 -3 30q0 34 12 76l158 633h-148l21 86h147l62 268l124 92l-86 -360h168l-20 -86h-164l-170 -682q-5 -19 -5 -35q0 -32 18 -57q27 -37 83 -37q72 0 162 67l-24 -108q-68 -45 -146 -45q-28 0 -56 8t-58 26t-48.5 48.5t-26.5 75.5z" />
<glyph unicode="u" horiz-adv-x="1067" d="M190 883l21 86h258l-164 -699q-7 -32 -7 -58q0 -18 4 -34q8 -38 31.5 -61t51.5 -34t59 -11q70 0 155.5 40t213.5 128l145 643h-167l20 86h266l-205 -883h158l-20 -86h-256l30 137q-117 -80 -202 -115.5t-158 -35.5q-49 0 -92 16t-78.5 52t-45.5 94q-4 23 -5 49 q0 41 10 92l135 594h-158z" />
<glyph unicode="v" horiz-adv-x="980" d="M209 883l20 86h349l-21 -86h-127l37 -768h4l494 768h-148l21 86h348l-21 -86h-100l-584 -908h-96l-51 908h-125z" />
<glyph unicode="w" horiz-adv-x="1515" d="M197 883l20 86h324l-21 -86h-123l19 -789h4l461 789h-129l20 86h418l-21 -86h-125l13 -772h4l475 772h-133l20 86h293l-20 -86h-62l-567 -908h-98l-6 906h-5l-522 -906h-98l-29 908h-112z" />
<glyph unicode="x" horiz-adv-x="1003" d="M-18 0l20 86h109l430 414l-201 383h-123l19 86h346l-19 -86h-129l172 -316l336 316h-158l19 86h360l-18 -86h-82l-418 -396l213 -401h103l-21 -86h-344l20 86h142l-176 334l-346 -334h163l-20 -86h-397z" />
<glyph unicode="y" d="M-27 -434l21 86h201l198 330l-84 901h-129l21 86h358l-20 -86h-131l65 -762h4l455 762h-148l21 86h334l-21 -86h-86l-786 -1317h-273z" />
<glyph unicode="z" horiz-adv-x="854" d="M37 0l24 106l750 777h-444l-48 -205h-90l68 291h649l-24 -107l-750 -776h492l49 207h90l-68 -293h-698z" />
<glyph unicode="{" horiz-adv-x="681" d="M244 414v131q99 0 145.5 79.5t46.5 213.5v245q0 87 24 151t66 99t93 50t110 10v-111q-60 -2 -90.5 -9.5t-53 -36.5t-29.5 -80t-7 -144v-142q0 -157 -45 -252t-152 -139q107 -44 152 -139t45 -252v-141q0 -62 3 -104t12 -73t20.5 -48t34 -27.5t46.5 -14t64 -4.5v-110 q-59 -5 -110 10t-93 49.5t-66 98.5t-24 151v246q0 134 -46.5 213.5t-145.5 79.5z" />
<glyph unicode="|" horiz-adv-x="1015" d="M596 -451v1864h98v-1864h-98z" />
<glyph unicode="}" horiz-adv-x="681" d="M240 -324q40 1 64 4.5t46.5 14t34 27.5t20.5 48t12 73t3 104v141q0 157 44.5 252t151.5 139q-107 44 -151.5 139t-44.5 252v142q0 93 -7 144t-29.5 80t-53 36.5t-90.5 9.5v111q59 5 110 -10t92.5 -50t65.5 -99t24 -151v-245q0 -133 47 -213t146 -80v-131q-99 0 -146 -80 t-47 -213v-246q0 -87 -24 -151t-65.5 -98.5t-92.5 -49.5t-110 -10v110z" />
<glyph unicode="~" horiz-adv-x="1343" d="M266 596v111q165 120 287 120q38 0 86 -12.5t81.5 -26t90.5 -38.5q6 -2 32.5 -14t33.5 -15t30 -13t33 -13t29 -9.5t31.5 -9t27.5 -4.5t29 -2q57 0 116 27.5t168 103.5v-111q-92 -65 -155.5 -93t-124.5 -28q-56 0 -127.5 24.5t-129 54.5t-127.5 54.5t-124 24.5 q-63 0 -120 -26t-167 -105z" />
<glyph unicode="&#xa1;" horiz-adv-x="491" d="M63 -410l91 394l180 628h49l-111 -567l-98 -455h-111zM350 788l43 193h111l-43 -193h-111z" />
<glyph unicode="&#xa2;" horiz-adv-x="980" d="M145 393q0 138 57 262t145 204t199 114.5t214 5.5l135 373h70l-144 -396q49 -23 82 -53t68 -84l35 148h84l-68 -291h-84q-21 76 -54.5 122.5t-90.5 75.5l-289 -808q121 0 207 42.5t163 139.5l66 -51q-177 -242 -463 -217l-139 -379h-70l142 399q-123 38 -194 142.5 t-71 250.5zM244 385q0 -111 52 -192t144 -113l291 815q-85 22 -173.5 -8.5t-157 -99.5t-112.5 -176t-44 -226z" />
<glyph unicode="&#xa3;" horiz-adv-x="1003" d="M102 139q0 79 47 129.5t121 50.5q95 0 156 -73q32 92 45 176.5t10 212.5h-243l20 86h223q-23 185 -9 316t65.5 214.5t123.5 122.5t164 39q65 0 120.5 -22.5t97 -68t54 -116t-9.5 -166.5h-90q26 102 5 165.5t-67 92.5t-114 29q-113 0 -174.5 -73.5t-73 -208t6.5 -324.5 h249l-20 -86h-229q-1 -147 -25 -249t-72 -200q56 -69 93 -94.5t83 -25.5q152 0 267 233h96q-71 -154 -165.5 -236.5t-201.5 -82.5q-118 0 -217 131q-82 -131 -184 -131q-66 0 -109 45t-43 114zM176 143q0 -40 23.5 -65t60.5 -25q66 0 131 117q-57 78 -121 78 q-41 0 -67.5 -29.5t-26.5 -75.5z" />
<glyph unicode="&#xa4;" horiz-adv-x="1366" d="M213 293l125 127q-51 69 -73.5 134.5t-22.5 145.5q0 77 22 140t74 135l-125 129l66 67l127 -131q80 56 142.5 78.5t137.5 22.5q76 0 139 -23t136 -78l131 131l63 -67l-129 -129q98 -121 98 -277q0 -58 -23 -137.5t-75 -140.5l129 -127l-63 -66l-131 127 q-125 -96 -281 -96q-149 0 -274 96l-127 -127zM338 700q0 -143 101 -244.5t243 -101.5t244 102t102 244t-101.5 243t-244.5 101q-142 0 -243 -101t-101 -243z" />
<glyph unicode="&#xa5;" horiz-adv-x="1185" d="M164 645l20 86h394l-89 225h-270l21 86h217l-101 263h-155l20 86h436l-20 -86h-164l100 -263h396l231 263h-182l20 86h439l-21 -86h-137l-232 -263h254l-20 -86h-309l-191 -225h459l-20 -86h-531l-129 -559h170l-20 -86h-447l21 86h165l129 559h-454zM608 956l86 -231 l199 231h-285z" />
<glyph unicode="&#xa6;" horiz-adv-x="1015" d="M596 307h98v-758h-98v758zM596 655v758h98v-758h-98z" />
<glyph unicode="&#xa7;" horiz-adv-x="897" d="M45 -133l107 37q-20 -68 -10 -115.5t48 -78t87 -44.5t106 -14q114 0 180 66.5t66 158.5q0 100 -103 203q-25 25 -80 66t-104.5 80.5t-99 88.5t-79.5 109t-30 123q0 120 80 209.5t225 132.5q-98 95 -98 223q0 136 96.5 218.5t255.5 82.5q74 0 135.5 -19.5t106 -56.5 t63 -97t4.5 -136l-96 -25q28 84 0.5 139t-81 82t-119.5 27q-125 0 -196 -55.5t-71 -153.5q0 -52 22.5 -99t64.5 -89t85 -77t100 -81t93 -82q131 -131 131 -284q0 -110 -75 -191.5t-216 -124.5q84 -100 84 -215q0 -136 -103.5 -222.5t-265.5 -86.5q-159 0 -250 79t-63 222z M231 545q0 -41 21 -82.5t63 -83t80 -73t97.5 -77t89.5 -71.5q254 70 254 250q0 52 -18 96.5t-56.5 86.5t-74.5 72.5t-96 78.5t-97 81q-129 -41 -196 -112.5t-67 -165.5z" />
<glyph unicode="&#xa8;" horiz-adv-x="681" d="M332 1255q0 31 20 51.5t51 20.5t52.5 -20.5t21.5 -51.5t-21.5 -52t-52.5 -21t-51 21t-20 52zM684 1255q0 31 20.5 51.5t51.5 20.5t52 -20.5t21 -51.5t-21 -52t-52 -21t-51.5 21t-20.5 52z" />
<glyph unicode="&#xa9;" horiz-adv-x="1642" d="M193 727q0 155 60.5 296.5t162.5 244t243.5 163t296.5 60.5t296.5 -60.5t244 -163t163 -244t60.5 -296.5t-60.5 -296.5t-163 -244t-244 -163t-296.5 -60.5t-296.5 60.5t-243.5 163t-162.5 244t-60.5 296.5zM287 727q0 -136 52.5 -259.5t142 -213t213 -142.5t259.5 -53 q182 0 335.5 89.5t243 243t89.5 335.5t-89.5 335.5t-243 243t-335.5 89.5q-136 0 -259.5 -53t-213 -142.5t-142 -213t-52.5 -259.5zM578 729q0 76 24 147.5t70 132t122.5 97.5t172.5 37q108 0 185.5 -52.5t135.5 -166.5l-96 -29q-70 166 -225 166q-125 0 -203 -89t-78 -233 q0 -158 74 -258t196 -100q180 0 250 205l90 -33q-20 -74 -59.5 -128t-88 -82t-94.5 -40t-93 -12q-169 0 -276 126.5t-107 311.5z" />
<glyph unicode="&#xaa;" horiz-adv-x="681" d="M256 967q0 82 72 136t180 54q106 0 205 -51l28 127q13 59 -28 94t-113 35q-59 0 -103 -23t-85 -75l-52 20q54 68 113 98.5t137 30.5q98 0 159 -51.5t36 -144.5l-90 -353h96l-10 -49h-156l21 88l-4 4q-43 -44 -107 -73t-119 -29q-77 0 -128.5 46.5t-51.5 115.5zM319 967 q0 -47 38.5 -79t95.5 -32q97 0 225 102l24 103q-90 49 -196 49q-77 0 -132 -41.5t-55 -101.5z" />
<glyph unicode="&#xab;" horiz-adv-x="831" d="M131 459l344 473h105l-361 -486l156 -401h-82zM547 459l344 473h104l-360 -486l156 -401h-82z" />
<glyph unicode="&#xac;" horiz-adv-x="1366" d="M279 856v92h1075v-579h-92v487h-983z" />
<glyph unicode="&#xad;" horiz-adv-x="724" d="M145 430l21 86h567l-20 -86h-568z" />
<glyph unicode="&#xae;" horiz-adv-x="1642" d="M193 727q0 155 60.5 296.5t162.5 244t243.5 163t296.5 60.5t296.5 -60.5t244 -163t163 -244t60.5 -296.5t-60.5 -296.5t-163 -244t-244 -163t-296.5 -60.5t-296.5 60.5t-243.5 163t-162.5 244t-60.5 296.5zM287 727q0 -136 52.5 -259.5t142 -213t213 -142.5t259.5 -53 q182 0 335.5 89.5t243 243t89.5 335.5t-89.5 335.5t-243 243t-335.5 89.5q-136 0 -259.5 -53t-213 -142.5t-142 -213t-52.5 -259.5zM647 317v803h338q129 0 202 -57t73 -158q0 -92 -65.5 -156t-174.5 -67v-4q39 -14 63 -28t46.5 -35t46 -62.5t48 -92.5t64.5 -143h-121 q-35 81 -59.5 132t-52 93.5t-50.5 64t-55.5 36.5t-66 19t-84.5 4h-45v-349h-107zM754 750h133q140 0 199 34t59 115q0 79 -53 109t-191 30h-147v-288z" />
<glyph unicode="&#xaf;" horiz-adv-x="681" d="M330 1272l14 71h518l-14 -71h-518z" />
<glyph unicode="&#xb0;" horiz-adv-x="811" d="M322 1124q0 120 84 204.5t204 84.5t204.5 -84.5t84.5 -204.5t-84.5 -204t-204.5 -84t-204 84t-84 204zM403 1124q0 -81 58.5 -143.5t148.5 -62.5q81 0 144 59t63 147q0 27 -12.5 60.5t-36 67.5t-65.5 56.5t-93 22.5q-89 0 -148 -63t-59 -144z" />
<glyph unicode="&#xb1;" horiz-adv-x="1366" d="M279 -37v92h1075v-92h-1075zM279 770v92h491v492h92v-492h492v-92h-492v-491h-92v491h-491z" />
<glyph unicode="&#xb2;" horiz-adv-x="704" d="M229 680q11 65 45 120.5t79.5 95.5t97.5 75.5t102 66t91 61t66 68t25 78.5q0 47 -32.5 79t-81.5 32q-143 0 -205 -226h-78q29 135 104 209t181 74q86 0 140 -47t54 -121q0 -53 -30.5 -100t-77 -80.5t-105 -71t-112 -71t-100 -82t-66.5 -101.5h297l43 187h82l-68 -246 h-451z" />
<glyph unicode="&#xb3;" horiz-adv-x="704" d="M252 920h80q-19 -91 27.5 -142t123.5 -51q74 0 129.5 50.5t55.5 117.5q0 63 -46.5 98t-129.5 35h-37l12 57h20q116 0 182 42t66 114q0 51 -38 84t-97 33q-122 0 -166 -156h-76q22 100 86 155.5t158 55.5q93 0 151 -49t58 -127q0 -72 -48 -123.5t-124 -60.5v-4 q113 -46 113 -152q0 -92 -80.5 -160.5t-188.5 -68.5q-116 0 -182 65.5t-49 186.5z" />
<glyph unicode="&#xb4;" horiz-adv-x="681" d="M457 1090l202 321h123l-250 -321h-75z" />
<glyph unicode="&#xb5;" horiz-adv-x="1130" d="M68 -434l280 1403h101l-117 -627q-21 -112 28.5 -181t137.5 -69q144 0 251.5 134.5t161.5 424.5l60 318h100l-182 -969h-101l37 193l-4 4q-15 -27 -43.5 -61t-72.5 -72t-105 -63.5t-125 -25.5q-62 0 -105 26.5t-87 90.5l-113 -526h-102z" />
<glyph unicode="&#xb6;" horiz-adv-x="1323" d="M231 973q0 191 130 304.5t350 113.5h690v-129h-195v-1696h-129v1696h-266v-1696h-131v979q-108 0 -195.5 35.5t-142 96t-83 136.5t-28.5 160z" />
<glyph unicode="&#xb7;" horiz-adv-x="598" d="M340 535l45 192h111l-45 -192h-111z" />
<glyph unicode="&#xb8;" horiz-adv-x="681" d="M49 -434l35 74q64 -15 147 -15q88 0 145.5 37t57.5 94q0 44 -46.5 70.5t-131.5 7.5l84 166h84l-45 -90q78 -6 121 -46.5t43 -107.5q0 -94 -83.5 -152.5t-217.5 -58.5q-107 0 -193 21z" />
<glyph unicode="&#xb9;" horiz-adv-x="704" d="M303 680l12 57h113l164 606h-111l13 58h194l-176 -664h94l-12 -57h-291z" />
<glyph unicode="&#xba;" horiz-adv-x="724" d="M225 1044q0 154 108.5 261.5t262.5 107.5q115 0 186.5 -71t71.5 -185q0 -148 -108 -253t-259 -105q-114 0 -188 69.5t-74 175.5zM289 1044q0 -85 57.5 -138.5t149.5 -53.5q120 0 207.5 91t87.5 214q0 89 -56 145t-147 56q-123 0 -211 -93t-88 -221z" />
<glyph unicode="&#xbb;" horiz-adv-x="831" d="M37 45l360 485l-155 402h82l161 -414l-344 -473h-104zM455 45l360 485l-156 402h82l162 -414l-344 -473h-104z" />
<glyph unicode="&#xbc;" horiz-adv-x="1771" d="M209 0l1302 1391h91l-1305 -1391h-88zM309 680l13 57h112l164 606h-111l13 58h194l-176 -664h94l-12 -57h-291zM995 264l484 469h71l-129 -469h127l-14 -57h-127l-35 -150h88l-12 -57h-262l12 57h102l35 150h-317q-3 37 -23 57zM1090 264h264l86 342l-4 4z" />
<glyph unicode="&#xbd;" horiz-adv-x="1771" d="M209 0l1302 1391h91l-1305 -1391h-88zM307 680l12 57h113l164 606h-111l13 58h194l-176 -664h94l-12 -57h-291zM1014 0q11 65 45 120.5t79.5 95.5t97.5 75.5t102 66t91 61t66 68t25 78.5q0 47 -33 79t-82 32q-143 0 -205 -225h-78q29 135 104 208.5t181 73.5 q86 0 140.5 -47t54.5 -121q0 -53 -30.5 -100t-77.5 -80.5t-105.5 -71t-112 -71t-100 -82t-66.5 -101.5h297l43 187h82l-68 -246h-450z" />
<glyph unicode="&#xbe;" horiz-adv-x="1771" d="M252 920h80q-19 -91 27.5 -142t123.5 -51q74 0 129.5 50.5t55.5 117.5q0 63 -46.5 98t-129.5 35h-37l12 57h20q116 0 182 42t66 114q0 51 -38 84t-97 33q-122 0 -166 -156h-76q22 100 86 155.5t158 55.5q93 0 151 -49t58 -127q0 -72 -48 -123.5t-124 -60.5v-4 q113 -46 113 -152q0 -92 -80.5 -160.5t-188.5 -68.5q-116 0 -182 65.5t-49 186.5zM305 0l1303 1391h90l-1305 -1391h-88zM1092 264l483 469h72l-129 -469h127l-15 -57h-127l-35 -150h88l-12 -57h-262l12 57h103l35 150h-318q-3 38 -22 57zM1182 264h264l92 342l-4 4z" />
<glyph unicode="&#xbf;" horiz-adv-x="897" d="M35 -133q0 94 40 180t104.5 145t152 89t176.5 16l90 307h47l-70 -407q-110 32 -213.5 -2.5t-167 -123t-63.5 -204.5q0 -101 67.5 -164t174.5 -63q98 0 169 59.5t103 169.5h86q-37 -149 -136 -232t-239 -83q-143 0 -232 87t-89 226zM610 774l45 193h111l-45 -193h-111z " />
<glyph unicode="&#xc0;" horiz-adv-x="1343" d="M-39 0l21 86h176l645 1219h-180l20 86h604l-20 -86h-160l139 -1219h180l-20 -86h-467l21 86h176l-49 440h-555l-230 -440h172l-20 -86h-453zM539 612h501l-75 709h-56zM729 1825h123l203 -322h-76z" />
<glyph unicode="&#xc1;" horiz-adv-x="1343" d="M-39 0l21 86h176l645 1219h-180l20 86h604l-20 -86h-160l139 -1219h180l-20 -86h-467l21 86h176l-49 440h-555l-230 -440h172l-20 -86h-453zM539 612h501l-75 709h-56zM823 1503l203 322h123l-250 -322h-76z" />
<glyph unicode="&#xc2;" horiz-adv-x="1343" d="M-39 0l21 86h176l645 1219h-180l20 86h604l-20 -86h-160l139 -1219h180l-20 -86h-467l21 86h176l-49 440h-555l-230 -440h172l-20 -86h-453zM539 612h501l-75 709h-56zM680 1497l272 313h115l184 -313h-59l-209 238l-246 -238h-57z" />
<glyph unicode="&#xc3;" horiz-adv-x="1343" d="M-39 0l21 86h176l645 1219h-180l20 86h604l-20 -86h-160l139 -1219h180l-20 -86h-467l21 86h176l-49 440h-555l-230 -440h172l-20 -86h-453zM539 612h501l-75 709h-56zM641 1573q9 52 35 93.5t64 65t81 23.5q58 0 162 -49q3 -1 9 -4q20 -10 30.5 -14.5t28.5 -12t30 -11 t26.5 -6.5t27.5 -3q41 0 68 23.5t46 76.5h51q-11 -74 -57.5 -130t-114.5 -56q-34 0 -79 15.5t-81.5 34.5t-80 34.5t-74.5 15.5q-90 0 -117 -96h-55z" />
<glyph unicode="&#xc4;" horiz-adv-x="1343" d="M-39 0l21 86h176l645 1219h-180l20 86h604l-20 -86h-160l139 -1219h180l-20 -86h-467l21 86h176l-49 440h-555l-230 -440h172l-20 -86h-453zM539 612h501l-75 709h-56zM698 1669q0 31 20.5 51.5t51.5 20.5t52.5 -20.5t21.5 -51.5t-21.5 -52.5t-52.5 -21.5t-51.5 21.5 t-20.5 52.5zM1051 1669q0 31 20 51.5t51 20.5t52.5 -20.5t21.5 -51.5t-21.5 -52.5t-52.5 -21.5q-30 0 -50.5 21.5t-20.5 52.5z" />
<glyph unicode="&#xc5;" horiz-adv-x="1343" d="M-39 0l21 86h176l645 1219h-180l20 86h604l-20 -86h-160l139 -1219h180l-20 -86h-467l21 86h176l-49 440h-555l-230 -440h172l-20 -86h-453zM539 612h501l-75 709h-56zM797 1675q0 77 55 132t131 55t131 -55t55 -132t-54.5 -131.5t-131.5 -54.5t-131.5 54.5t-54.5 131.5z M856 1675q0 -53 37 -90t90 -37t90 37t37 90t-37 90t-90 37t-90 -37t-37 -90z" />
<glyph unicode="&#xc6;" horiz-adv-x="1835" d="M-111 0l21 86h141l918 1219h-199l21 86h1232l-98 -426h-86l78 340h-639l-127 -551h508l-21 -86h-508l-133 -582h652l75 334h86l-96 -420h-1030l21 86h182l133 582h-420l-436 -582h164l-21 -86h-418zM664 754h376l131 565h-84z" />
<glyph unicode="&#xc7;" horiz-adv-x="1515" d="M217 571q0 134 45 262t126.5 231.5t189 182.5t240.5 122.5t272 43.5q150 0 258 -57t165 -166l48 201h88l-88 -381h-72q-25 149 -130.5 233t-268.5 84q-152 0 -293 -61.5t-244 -163.5t-165 -242t-62 -291q0 -224 133 -363.5t348 -139.5q154 0 286.5 69.5t254.5 216.5 l65 -57q-105 -146 -267.5 -230.5t-334.5 -84.5h-29l-34 -70q78 -6 120.5 -46t42.5 -108q0 -94 -83.5 -152.5t-217.5 -58.5q-106 0 -192 21l35 74q65 -15 147 -15q88 0 145.5 37t57.5 94q0 44 -46.5 70.5t-131.5 7.5l77 154q-101 14 -183.5 54.5t-138 97.5t-93 128.5t-54 147 t-16.5 155.5z" />
<glyph unicode="&#xc8;" horiz-adv-x="1216" d="M27 0l18 86h143l283 1219h-156l19 86h997l-98 -426h-86l78 340h-643l-127 -549h512l-21 -86h-512l-135 -584h655l78 338h86l-96 -424h-995zM641 1825h123l203 -322h-76z" />
<glyph unicode="&#xc9;" horiz-adv-x="1216" d="M27 0l18 86h143l283 1219h-156l19 86h997l-98 -426h-86l78 340h-643l-127 -549h512l-21 -86h-512l-135 -584h655l78 338h86l-96 -424h-995zM838 1503l202 322h123l-250 -322h-75z" />
<glyph unicode="&#xca;" horiz-adv-x="1216" d="M27 0l18 86h143l283 1219h-156l19 86h997l-98 -426h-86l78 340h-643l-127 -549h512l-21 -86h-512l-135 -584h655l78 338h86l-96 -424h-995zM653 1497l273 313h114l185 -313h-60l-209 238l-245 -238h-58z" />
<glyph unicode="&#xcb;" horiz-adv-x="1216" d="M27 0l18 86h143l283 1219h-156l19 86h997l-98 -426h-86l78 340h-643l-127 -549h512l-21 -86h-512l-135 -584h655l78 338h86l-96 -424h-995zM713 1669q0 31 20 51.5t51 20.5t52.5 -20.5t21.5 -51.5t-21.5 -52.5t-52.5 -21.5q-30 0 -50.5 21.5t-20.5 52.5zM1065 1669 q0 31 20.5 51.5t51.5 20.5t52 -20.5t21 -51.5t-21 -52.5t-52 -21.5t-51.5 21.5t-20.5 52.5z" />
<glyph unicode="&#xcc;" horiz-adv-x="532" d="M29 0l20 86h148l280 1219h-147l20 86h373l-21 -86h-114l-281 -1219h150l-21 -86h-407zM299 1825h123l203 -322h-76z" />
<glyph unicode="&#xcd;" horiz-adv-x="532" d="M29 0l20 86h148l280 1219h-147l20 86h373l-21 -86h-114l-281 -1219h150l-21 -86h-407zM516 1503l203 322h123l-250 -322h-76z" />
<glyph unicode="&#xce;" horiz-adv-x="532" d="M29 0l20 86h148l280 1219h-147l20 86h373l-21 -86h-114l-281 -1219h150l-21 -86h-407zM311 1497l273 313h114l185 -313h-60l-209 238l-245 -238h-58z" />
<glyph unicode="&#xcf;" horiz-adv-x="532" d="M29 0l20 86h148l280 1219h-147l20 86h373l-21 -86h-114l-281 -1219h150l-21 -86h-407zM371 1669q0 31 20 51.5t51 20.5t52.5 -20.5t21.5 -51.5t-21.5 -52.5t-52.5 -21.5q-30 0 -50.5 21.5t-20.5 52.5zM723 1669q0 31 20.5 51.5t51.5 20.5t52 -20.5t21 -51.5t-21 -52.5 t-52 -21.5t-51.5 21.5t-20.5 52.5z" />
<glyph unicode="&#xd0;" horiz-adv-x="1429" d="M29 0l20 86h146l129 565h-189l21 86h188l131 568h-156l21 86h496q281 0 452.5 -160t171.5 -434q0 -158 -56.5 -303t-155.5 -254.5t-245.5 -174.5t-316.5 -65h-657zM305 86h357q142 0 260.5 45.5t196.5 118t132 167.5t77.5 191t23.5 191q0 104 -32.5 194t-96.5 160.5 t-169 111t-239 40.5h-229l-131 -568h409l-20 -86h-410z" />
<glyph unicode="&#xd1;" horiz-adv-x="1386" d="M8 0l21 86h157l281 1219h-170l20 86h326l461 -1235h4l264 1149h-158l21 86h397l-20 -86h-152l-305 -1317h-104l-486 1317h-4l-278 -1219h149l-20 -86h-404zM760 1573q14 80 64 131t116 51q58 0 162 -49q3 -1 15.5 -7t16 -8t15 -7t16 -7t15 -6t15.5 -5.5t14 -4t15.5 -3.5 t14 -2t14.5 -1q41 0 68.5 24t46.5 76h51q-11 -74 -57.5 -130t-114.5 -56q-56 0 -168 51q-3 1 -16 7t-16.5 7.5t-15 7t-16 7t-14.5 5.5t-15 5t-13.5 4t-14.5 3.5t-13 1.5t-13 1q-90 0 -117 -96h-55z" />
<glyph unicode="&#xd2;" horiz-adv-x="1556" d="M221 543q0 130 37.5 257t110 237t169.5 194.5t224.5 133t267.5 48.5q265 0 421.5 -153.5t156.5 -413.5q0 -117 -33 -237.5t-102.5 -233.5t-165 -201t-231.5 -141t-292 -53q-141 0 -250.5 45t-176.5 124t-101.5 179t-34.5 215zM330 539q0 -214 124 -343.5t328 -129.5 q113 0 215.5 35.5t179.5 95.5t139 139t101.5 167t60.5 177.5t21 173.5q0 71 -17 138t-54.5 128t-91.5 107t-134 73t-176 27q-115 0 -223 -44t-192.5 -120.5t-148.5 -176t-98 -215t-34 -232.5zM811 1825h123l203 -322h-76z" />
<glyph unicode="&#xd3;" horiz-adv-x="1556" d="M221 543q0 130 37.5 257t110 237t169.5 194.5t224.5 133t267.5 48.5q265 0 421.5 -153.5t156.5 -413.5q0 -117 -33 -237.5t-102.5 -233.5t-165 -201t-231.5 -141t-292 -53q-141 0 -250.5 45t-176.5 124t-101.5 179t-34.5 215zM330 539q0 -214 124 -343.5t328 -129.5 q113 0 215.5 35.5t179.5 95.5t139 139t101.5 167t60.5 177.5t21 173.5q0 71 -17 138t-54.5 128t-91.5 107t-134 73t-176 27q-115 0 -223 -44t-192.5 -120.5t-148.5 -176t-98 -215t-34 -232.5zM1028 1503l203 322h123l-250 -322h-76z" />
<glyph unicode="&#xd4;" horiz-adv-x="1556" d="M221 543q0 130 37.5 257t110 237t169.5 194.5t224.5 133t267.5 48.5q265 0 421.5 -153.5t156.5 -413.5q0 -117 -33 -237.5t-102.5 -233.5t-165 -201t-231.5 -141t-292 -53q-141 0 -250.5 45t-176.5 124t-101.5 179t-34.5 215zM330 539q0 -214 124 -343.5t328 -129.5 q113 0 215.5 35.5t179.5 95.5t139 139t101.5 167t60.5 177.5t21 173.5q0 71 -17 138t-54.5 128t-91.5 107t-134 73t-176 27q-115 0 -223 -44t-192.5 -120.5t-148.5 -176t-98 -215t-34 -232.5zM823 1497l273 313h114l185 -313h-60l-209 238l-245 -238h-58z" />
<glyph unicode="&#xd5;" horiz-adv-x="1556" d="M221 543q0 130 37.5 257t110 237t169.5 194.5t224.5 133t267.5 48.5q265 0 421.5 -153.5t156.5 -413.5q0 -117 -33 -237.5t-102.5 -233.5t-165 -201t-231.5 -141t-292 -53q-141 0 -250.5 45t-176.5 124t-101.5 179t-34.5 215zM330 539q0 -214 124 -343.5t328 -129.5 q113 0 215.5 35.5t179.5 95.5t139 139t101.5 167t60.5 177.5t21 173.5q0 71 -17 138t-54.5 128t-91.5 107t-134 73t-176 27q-115 0 -223 -44t-192.5 -120.5t-148.5 -176t-98 -215t-34 -232.5zM846 1573q14 80 64 131t116 51q58 0 162 -49q3 -1 15.5 -7t16 -8t15 -7t16 -7 t15 -6t15.5 -5.5t14 -4t15.5 -3.5t14 -2t14.5 -1q41 0 68.5 24t46.5 76h51q-11 -74 -57.5 -130t-114.5 -56q-56 0 -168 51q-3 1 -16 7t-16.5 7.5t-15 7t-16 7t-14.5 5.5t-15 5t-13.5 4t-14.5 3.5t-13 1.5t-13 1q-90 0 -117 -96h-55z" />
<glyph unicode="&#xd6;" horiz-adv-x="1556" d="M221 543q0 130 37.5 257t110 237t169.5 194.5t224.5 133t267.5 48.5q265 0 421.5 -153.5t156.5 -413.5q0 -117 -33 -237.5t-102.5 -233.5t-165 -201t-231.5 -141t-292 -53q-141 0 -250.5 45t-176.5 124t-101.5 179t-34.5 215zM330 539q0 -214 124 -343.5t328 -129.5 q113 0 215.5 35.5t179.5 95.5t139 139t101.5 167t60.5 177.5t21 173.5q0 71 -17 138t-54.5 128t-91.5 107t-134 73t-176 27q-115 0 -223 -44t-192.5 -120.5t-148.5 -176t-98 -215t-34 -232.5zM903 1669q0 31 20.5 51.5t51.5 20.5t52.5 -20.5t21.5 -51.5t-21.5 -52.5 t-52.5 -21.5t-51.5 21.5t-20.5 52.5zM1255 1669q0 31 20.5 51.5t51.5 20.5t52.5 -20.5t21.5 -51.5t-21.5 -52.5t-52.5 -21.5t-51.5 21.5t-20.5 52.5z" />
<glyph unicode="&#xd7;" horiz-adv-x="1368" d="M328 236l422 421l-422 422l65 66l422 -424l424 424l66 -66l-422 -422l422 -421l-66 -66l-424 422l-422 -422z" />
<glyph unicode="&#xd8;" horiz-adv-x="1556" d="M221 547q0 117 34 238t103 233.5t164 200.5t227.5 141t282.5 53q220 0 375 -108l96 104l51 -45l-96 -111q72 -74 111 -180.5t39 -230.5q0 -167 -62 -324t-169 -275.5t-261.5 -190.5t-327.5 -72q-110 0 -194.5 24.5t-165.5 81.5l-88 -104l-53 45l88 102q-72 70 -113 181.5 t-41 236.5zM330 545q0 -208 114 -340l897 1020q-125 102 -307 102q-123 0 -235 -46t-196 -124.5t-146.5 -178.5t-94.5 -212t-32 -221zM494 158q126 -92 290 -92q134 0 252 49t201 130.5t143.5 184.5t89.5 211.5t29 212.5q0 89 -28 173.5t-80 148.5z" />
<glyph unicode="&#xd9;" horiz-adv-x="1259" d="M242.5 248q-14.5 70 7.5 160l207 897h-148l21 86h405l-20 -86h-148l-215 -932q-17 -73 1 -132.5t62 -97t104.5 -57.5t129.5 -20q140 0 243 85t144 265l205 889h-145l20 86h395l-20 -86h-139l-215 -936q-44 -190 -185 -289.5t-321 -99.5q-65 0 -127 15.5t-118.5 48.5 t-92.5 83.5t-50.5 120.5zM662 1825h122l203 -322h-76z" />
<glyph unicode="&#xda;" horiz-adv-x="1259" d="M242.5 248q-14.5 70 7.5 160l207 897h-148l21 86h405l-20 -86h-148l-215 -932q-17 -73 1 -132.5t62 -97t104.5 -57.5t129.5 -20q140 0 243 85t144 265l205 889h-145l20 86h395l-20 -86h-139l-215 -936q-44 -190 -185 -289.5t-321 -99.5q-65 0 -127 15.5t-118.5 48.5 t-92.5 83.5t-50.5 120.5zM879 1503l202 322h123l-250 -322h-75z" />
<glyph unicode="&#xdb;" horiz-adv-x="1259" d="M242.5 248q-14.5 70 7.5 160l207 897h-148l21 86h405l-20 -86h-148l-215 -932q-17 -73 1 -132.5t62 -97t104.5 -57.5t129.5 -20q140 0 243 85t144 265l205 889h-145l20 86h395l-20 -86h-139l-215 -936q-44 -190 -185 -289.5t-321 -99.5q-65 0 -127 15.5t-118.5 48.5 t-92.5 83.5t-50.5 120.5zM674 1497l272 313h115l184 -313h-59l-209 238l-246 -238h-57z" />
<glyph unicode="&#xdc;" horiz-adv-x="1259" d="M242.5 248q-14.5 70 7.5 160l207 897h-148l21 86h405l-20 -86h-148l-215 -932q-17 -73 1 -132.5t62 -97t104.5 -57.5t129.5 -20q140 0 243 85t144 265l205 889h-145l20 86h395l-20 -86h-139l-215 -936q-44 -190 -185 -289.5t-321 -99.5q-65 0 -127 15.5t-118.5 48.5 t-92.5 83.5t-50.5 120.5zM743 1669q0 31 20.5 51.5t51.5 20.5t52.5 -20.5t21.5 -51.5t-21.5 -52.5t-52.5 -21.5t-51.5 21.5t-20.5 52.5zM1096 1669q0 31 20 51.5t51 20.5t52.5 -20.5t21.5 -51.5t-21.5 -52.5t-52.5 -21.5q-30 0 -50.5 21.5t-20.5 52.5z" />
<glyph unicode="&#xdd;" horiz-adv-x="1216" d="M215 1305l18 86h439l-19 -86h-166l222 -572l505 572h-182l19 86h440l-18 -86h-140l-592 -672l-127 -547h168l-18 -86h-447l19 86h168l127 547l-260 672h-156zM858 1503l203 322h123l-250 -322h-76z" />
<glyph unicode="&#xde;" d="M16 0l21 86h147l281 1219h-148l21 86h430l-20 -86h-173l-45 -199h158q190 0 301 -103t111 -278q0 -58 -14.5 -115.5t-51 -117t-92 -104t-144.5 -73t-200 -28.5h-256l-47 -201h172l-21 -86h-430zM360 373h244q87 0 156 21.5t111.5 56t70 82t38.5 94.5t11 98 q0 134 -75.5 214.5t-223.5 80.5h-182z" />
<glyph unicode="&#xdf;" horiz-adv-x="1173" d="M6 0l21 86h129l192 838q31 134 65 216.5t93 141.5q131 131 338 131q169 0 284 -90t115 -223q0 -108 -77.5 -196t-231.5 -118v-4q233 -92 233 -344q0 -186 -126.5 -319t-303.5 -133q-103 0 -188 49l18 82q95 -45 176 -45q132 0 229 113t97 264q0 120 -90 212.5t-248 102.5 l19 82q51 -8 116.5 2t129 37t106.5 82t43 127q0 100 -87.5 166.5t-219.5 66.5q-156 0 -252 -96q-85 -85 -140 -318l-190 -827h143l-20 -86h-373z" />
<glyph unicode="&#xe0;" d="M152 254q0 138 110.5 227.5t280.5 89.5q163 0 311 -86l51 207q23 100 -42.5 158.5t-172.5 58.5q-94 0 -163.5 -38t-135.5 -126l-78 35q82 110 173.5 160.5t211.5 50.5q69 0 128.5 -17.5t108 -56.5t65 -101.5t-0.5 -151.5l-137 -578h144l-19 -86h-231l35 152l-5 4 q-84 -81 -177 -125.5t-177 -44.5q-118 0 -199 77.5t-81 190.5zM250 258q0 -82 58 -134t149 -52q145 0 342 170l39 172q-65 37 -147.5 59.5t-158.5 22.5q-115 0 -198.5 -70.5t-83.5 -167.5zM545 1411h123l202 -321h-75z" />
<glyph unicode="&#xe1;" d="M152 254q0 138 110.5 227.5t280.5 89.5q163 0 311 -86l51 207q23 100 -42.5 158.5t-172.5 58.5q-94 0 -163.5 -38t-135.5 -126l-78 35q82 110 173.5 160.5t211.5 50.5q69 0 128.5 -17.5t108 -56.5t65 -101.5t-0.5 -151.5l-137 -578h144l-19 -86h-231l35 152l-5 4 q-84 -81 -177 -125.5t-177 -44.5q-118 0 -199 77.5t-81 190.5zM250 258q0 -82 58 -134t149 -52q145 0 342 170l39 172q-65 37 -147.5 59.5t-158.5 22.5q-115 0 -198.5 -70.5t-83.5 -167.5zM639 1090l203 321h123l-250 -321h-76z" />
<glyph unicode="&#xe2;" d="M152 254q0 138 110.5 227.5t280.5 89.5q163 0 311 -86l51 207q23 100 -42.5 158.5t-172.5 58.5q-94 0 -163.5 -38t-135.5 -126l-78 35q82 110 173.5 160.5t211.5 50.5q69 0 128.5 -17.5t108 -56.5t65 -101.5t-0.5 -151.5l-137 -578h144l-19 -86h-231l35 152l-5 4 q-84 -81 -177 -125.5t-177 -44.5q-118 0 -199 77.5t-81 190.5zM250 258q0 -82 58 -134t149 -52q145 0 342 170l39 172q-65 37 -147.5 59.5t-158.5 22.5q-115 0 -198.5 -70.5t-83.5 -167.5zM434 1083l273 314h114l185 -314h-60l-209 238l-245 -238h-58z" />
<glyph unicode="&#xe3;" d="M152 254q0 138 110.5 227.5t280.5 89.5q163 0 311 -86l51 207q23 100 -42.5 158.5t-172.5 58.5q-94 0 -163.5 -38t-135.5 -126l-78 35q82 110 173.5 160.5t211.5 50.5q69 0 128.5 -17.5t108 -56.5t65 -101.5t-0.5 -151.5l-137 -578h144l-19 -86h-231l35 152l-5 4 q-84 -81 -177 -125.5t-177 -44.5q-118 0 -199 77.5t-81 190.5zM250 258q0 -82 58 -134t149 -52q145 0 342 170l39 172q-65 37 -147.5 59.5t-158.5 22.5q-115 0 -198.5 -70.5t-83.5 -167.5zM457 1159q14 80 64 131t116 51q58 0 162 -49q3 -1 15.5 -7t16 -8t15 -7t16 -7t15 -6 t15.5 -5.5t14 -4t15.5 -3.5t14 -2t14.5 -1q41 0 68.5 24t46.5 76h51q-11 -74 -57.5 -130t-114.5 -56q-56 0 -168 51q-3 1 -16 7t-16.5 7.5t-15 7t-16 7t-14.5 5.5t-15 5t-13.5 4t-14.5 3.5t-13 1.5t-13 1q-90 0 -117 -96h-55z" />
<glyph unicode="&#xe4;" d="M152 254q0 138 110.5 227.5t280.5 89.5q163 0 311 -86l51 207q23 100 -42.5 158.5t-172.5 58.5q-94 0 -163.5 -38t-135.5 -126l-78 35q82 110 173.5 160.5t211.5 50.5q69 0 128.5 -17.5t108 -56.5t65 -101.5t-0.5 -151.5l-137 -578h144l-19 -86h-231l35 152l-5 4 q-84 -81 -177 -125.5t-177 -44.5q-118 0 -199 77.5t-81 190.5zM250 258q0 -82 58 -134t149 -52q145 0 342 170l39 172q-65 37 -147.5 59.5t-158.5 22.5q-115 0 -198.5 -70.5t-83.5 -167.5zM514 1255q0 31 20.5 51.5t51.5 20.5t52 -20.5t21 -51.5t-21 -52t-52 -21t-51.5 21 t-20.5 52zM866 1255q0 31 20.5 51.5t51.5 20.5t52.5 -20.5t21.5 -51.5t-21.5 -52t-52.5 -21t-51.5 21t-20.5 52z" />
<glyph unicode="&#xe5;" d="M152 254q0 138 110.5 227.5t280.5 89.5q163 0 311 -86l51 207q23 100 -42.5 158.5t-172.5 58.5q-94 0 -163.5 -38t-135.5 -126l-78 35q82 110 173.5 160.5t211.5 50.5q69 0 128.5 -17.5t108 -56.5t65 -101.5t-0.5 -151.5l-137 -578h144l-19 -86h-231l35 152l-5 4 q-84 -81 -177 -125.5t-177 -44.5q-118 0 -199 77.5t-81 190.5zM250 258q0 -82 58 -134t149 -52q145 0 342 170l39 172q-65 37 -147.5 59.5t-158.5 22.5q-115 0 -198.5 -70.5t-83.5 -167.5zM612 1262q0 76 55 131t132 55t131.5 -55t54.5 -131q0 -77 -55 -132t-131 -55 q-77 0 -132 55.5t-55 131.5zM672 1262q0 -52 37 -89.5t90 -37.5t90 37.5t37 89.5t-37 89.5t-90 37.5t-90 -37.5t-37 -89.5z" />
<glyph unicode="&#xe6;" horiz-adv-x="1748" d="M145 250q0 136 116 232t280 96q74 0 143 -19.5t158 -64.5l49 206q21 91 -31.5 150t-171.5 59q-180 0 -305 -159l-78 34q153 207 389 207q122 0 195 -53t92 -154q76 100 176.5 153.5t208.5 53.5q58 0 116.5 -18t116 -57.5t96 -101.5t56.5 -149t-2 -202h-811 q-14 -87 7 -163.5t65.5 -128t105 -81t125.5 -29.5q93 0 179.5 43.5t146.5 120.5l90 -35q-77 -103 -184.5 -159t-231.5 -56q-137 0 -229 63t-146 195q-65 -95 -147 -155.5t-149.5 -81.5t-133.5 -21q-123 0 -207 79.5t-84 195.5zM244 252q0 -81 63.5 -136t153.5 -55 q189 0 332 215l30 140q-164 80 -278 80q-120 0 -210.5 -66.5t-90.5 -177.5zM954 541h711q7 169 -80 266.5t-229 97.5q-140 0 -255.5 -104.5t-146.5 -259.5z" />
<glyph unicode="&#xe7;" horiz-adv-x="980" d="M145 387q0 111 32.5 209.5t86 169t121 122.5t140 77.5t141.5 25.5q102 0 176 -41t129 -131l35 150h84l-68 -293h-84q-29 110 -102 169.5t-177 59.5q-111 0 -206.5 -70.5t-152 -191.5t-56.5 -262q0 -139 84 -229.5t213 -90.5q188 0 333 187l68 -51q-71 -104 -179 -163 t-239 -59l-32 -65q78 -6 120.5 -46t42.5 -108q0 -94 -83.5 -152.5t-217.5 -58.5q-106 0 -192 21l35 74q65 -15 147 -15q88 0 145.5 37t57.5 94q0 44 -46.5 70.5t-131.5 7.5l77 154q-139 26 -220 133t-81 266z" />
<glyph unicode="&#xe8;" horiz-adv-x="1087" d="M156 412q0 155 73 288.5t196.5 212t266.5 78.5q89 0 166 -33.5t134 -96.5t82 -165t7 -229h-827q-19 -178 73 -292t255 -114q187 0 323 168l92 -36q-169 -218 -415 -218q-192 0 -309 120t-117 317zM272 543h725q10 172 -75.5 267t-229.5 95q-151 0 -269.5 -102 t-150.5 -260zM442 1411h123l203 -321h-76z" />
<glyph unicode="&#xe9;" horiz-adv-x="1087" d="M156 412q0 155 73 288.5t196.5 212t266.5 78.5q89 0 166 -33.5t134 -96.5t82 -165t7 -229h-827q-19 -178 73 -292t255 -114q187 0 323 168l92 -36q-169 -218 -415 -218q-192 0 -309 120t-117 317zM272 543h725q10 172 -75.5 267t-229.5 95q-151 0 -269.5 -102 t-150.5 -260zM659 1090l203 321h123l-250 -321h-76z" />
<glyph unicode="&#xea;" horiz-adv-x="1087" d="M156 412q0 155 73 288.5t196.5 212t266.5 78.5q89 0 166 -33.5t134 -96.5t82 -165t7 -229h-827q-19 -178 73 -292t255 -114q187 0 323 168l92 -36q-169 -218 -415 -218q-192 0 -309 120t-117 317zM272 543h725q10 172 -75.5 267t-229.5 95q-151 0 -269.5 -102 t-150.5 -260zM455 1083l272 314h115l184 -314h-59l-209 238l-246 -238h-57z" />
<glyph unicode="&#xeb;" horiz-adv-x="1087" d="M156 412q0 155 73 288.5t196.5 212t266.5 78.5q89 0 166 -33.5t134 -96.5t82 -165t7 -229h-827q-19 -178 73 -292t255 -114q187 0 323 168l92 -36q-169 -218 -415 -218q-192 0 -309 120t-117 317zM272 543h725q10 172 -75.5 267t-229.5 95q-151 0 -269.5 -102 t-150.5 -260zM535 1255q0 31 20 51.5t51 20.5t52.5 -20.5t21.5 -51.5t-21.5 -52t-52.5 -21t-51 21t-20 52zM887 1255q0 31 20 51.5t51 20.5t52.5 -20.5t21.5 -51.5t-21.5 -52t-52.5 -21t-51 21t-20 52z" />
<glyph unicode="&#xec;" horiz-adv-x="491" d="M31 0l18 86h154l184 797h-158l21 86h258l-205 -883h156l-19 -86h-409zM145 1411h123l203 -321h-76z" />
<glyph unicode="&#xed;" horiz-adv-x="491" d="M31 0l18 86h154l184 797h-158l21 86h258l-205 -883h156l-19 -86h-409zM362 1090l203 321h123l-250 -321h-76z" />
<glyph unicode="&#xee;" horiz-adv-x="491" d="M31 0l18 86h154l184 797h-158l21 86h258l-205 -883h156l-19 -86h-409zM158 1083l272 314h115l184 -314h-59l-209 238l-246 -238h-57z" />
<glyph unicode="&#xef;" horiz-adv-x="491" d="M31 0l18 86h154l184 797h-158l21 86h258l-205 -883h156l-19 -86h-409zM238 1255q0 31 20 51.5t51 20.5t52.5 -20.5t21.5 -51.5t-21.5 -52t-52.5 -21t-51 21t-20 52zM590 1255q0 31 20.5 51.5t51.5 20.5t52 -20.5t21 -51.5t-21 -52t-52 -21t-51.5 21t-20.5 52z" />
<glyph unicode="&#xf0;" horiz-adv-x="1110" d="M162 395q0 126 48 239t126.5 191.5t180.5 124t208 45.5q30 0 62 -5t79 -19t91 -48t75 -85l4 4q-51 234 -172 366l-211 -110l-69 49l223 117q-54 49 -145 100l88 47q83 -35 149 -98l186 98l72 -49l-203 -107q99 -120 146 -282t47 -303q0 -160 -49 -292.5t-130.5 -218 t-185 -132.5t-215.5 -47q-179 0 -292 116t-113 299zM260 391q0 -144 89.5 -234.5t230.5 -90.5q121 0 226.5 69.5t167.5 186t62 249.5q0 151 -87 244.5t-228 93.5q-90 0 -174 -39.5t-147.5 -107t-101.5 -165t-38 -206.5z" />
<glyph unicode="&#xf1;" horiz-adv-x="1067" d="M20 0l21 86h143l185 797h-158l20 86h258l-32 -138q121 85 206 122.5t164 37.5q52 0 96 -21t74.5 -61.5t40 -101t-7.5 -139.5l-133 -582h160l-21 -86h-413l20 86h154l141 614q21 91 -16.5 148t-124.5 57q-69 0 -153 -42t-210 -134l-149 -643h149l-20 -86h-394zM467 1159 q14 80 64 131t116 51q58 0 162 -49q3 -1 9 -4q101 -45 143 -47q41 0 68 23.5t46 76.5h51q-11 -74 -57.5 -130t-114.5 -56q-56 0 -168 51q-3 1 -16 7t-16.5 7.5t-15 7t-16 7t-14.5 5.5t-15 5t-13.5 4t-14.5 3.5t-13 1.5t-13 1q-90 0 -117 -96h-55z" />
<glyph unicode="&#xf2;" horiz-adv-x="1110" d="M162 385q0 135 49 250.5t129.5 192t183 120t211.5 43.5q174 0 286 -113t112 -307q0 -161 -76.5 -298.5t-207 -217.5t-282.5 -80q-98 0 -176.5 34t-127.5 92t-75 130.5t-26 153.5zM260 387q0 -145 88.5 -235.5t229.5 -90.5q121 0 226.5 70t167.5 187t62 251 q0 151 -87 243.5t-228 92.5q-124 0 -229.5 -69t-167.5 -188.5t-62 -260.5zM455 1411h123l202 -321h-75z" />
<glyph unicode="&#xf3;" horiz-adv-x="1110" d="M162 385q0 135 49 250.5t129.5 192t183 120t211.5 43.5q174 0 286 -113t112 -307q0 -161 -76.5 -298.5t-207 -217.5t-282.5 -80q-98 0 -176.5 34t-127.5 92t-75 130.5t-26 153.5zM260 387q0 -145 88.5 -235.5t229.5 -90.5q121 0 226.5 70t167.5 187t62 251 q0 151 -87 243.5t-228 92.5q-124 0 -229.5 -69t-167.5 -188.5t-62 -260.5zM672 1090l202 321h123l-249 -321h-76z" />
<glyph unicode="&#xf4;" horiz-adv-x="1110" d="M162 385q0 135 49 250.5t129.5 192t183 120t211.5 43.5q174 0 286 -113t112 -307q0 -161 -76.5 -298.5t-207 -217.5t-282.5 -80q-98 0 -176.5 34t-127.5 92t-75 130.5t-26 153.5zM260 387q0 -145 88.5 -235.5t229.5 -90.5q121 0 226.5 70t167.5 187t62 251 q0 151 -87 243.5t-228 92.5q-124 0 -229.5 -69t-167.5 -188.5t-62 -260.5zM467 1083l272 314h115l184 -314h-59l-209 238l-246 -238h-57z" />
<glyph unicode="&#xf5;" horiz-adv-x="1110" d="M162 385q0 135 49 250.5t129.5 192t183 120t211.5 43.5q174 0 286 -113t112 -307q0 -161 -76.5 -298.5t-207 -217.5t-282.5 -80q-98 0 -176.5 34t-127.5 92t-75 130.5t-26 153.5zM260 387q0 -145 88.5 -235.5t229.5 -90.5q121 0 226.5 70t167.5 187t62 251 q0 151 -87 243.5t-228 92.5q-124 0 -229.5 -69t-167.5 -188.5t-62 -260.5zM489 1159q14 80 64.5 131t116.5 51q53 0 159 -50t154 -50q41 0 68.5 24t46.5 76h51q-11 -73 -58 -129.5t-114 -56.5q-56 0 -168 51q-3 1 -16 7t-16.5 7.5t-15 7t-16 7t-14.5 5.5t-15 5t-13.5 4 t-14.5 3.5t-13 1.5t-13 1q-90 0 -117 -96h-56z" />
<glyph unicode="&#xf6;" horiz-adv-x="1110" d="M162 385q0 135 49 250.5t129.5 192t183 120t211.5 43.5q174 0 286 -113t112 -307q0 -161 -76.5 -298.5t-207 -217.5t-282.5 -80q-98 0 -176.5 34t-127.5 92t-75 130.5t-26 153.5zM260 387q0 -145 88.5 -235.5t229.5 -90.5q121 0 226.5 70t167.5 187t62 251 q0 151 -87 243.5t-228 92.5q-124 0 -229.5 -69t-167.5 -188.5t-62 -260.5zM547 1255q0 31 20 51.5t51 20.5t52.5 -20.5t21.5 -51.5t-21.5 -52t-52.5 -21t-51 21t-20 52zM899 1255q0 31 20.5 51.5t51.5 20.5t52 -20.5t21 -51.5t-21 -52t-52 -21t-51.5 21t-20.5 52z" />
<glyph unicode="&#xf7;" horiz-adv-x="1368" d="M279 610v92h1075v-92h-1075zM752 242q0 26 18.5 45.5t44.5 19.5t46 -19.5t20 -45.5t-20 -45t-46 -19t-44.5 19t-18.5 45zM752 1069q0 27 18.5 46.5t44.5 19.5t46 -20t20 -46t-19.5 -44.5t-46.5 -18.5q-26 0 -44.5 18.5t-18.5 44.5z" />
<glyph unicode="&#xf8;" horiz-adv-x="1110" d="M160 391q0 162 77 300.5t208.5 219t285.5 80.5q137 0 240 -73l63 73l51 -47l-63 -74q57 -57 84 -121.5t27 -181.5q0 -86 -24 -171t-72.5 -160.5t-115.5 -134t-159 -92.5t-197 -34q-141 0 -250 80l-65 -78l-53 46l67 79q-104 113 -104 289zM258 387q0 -122 70 -213 l579 672q-77 59 -188 59q-125 0 -231 -69.5t-168 -189t-62 -259.5zM377 125q88 -64 201 -64q129 0 235.5 76t163.5 192t57 240q0 140 -76 228z" />
<glyph unicode="&#xf9;" horiz-adv-x="1067" d="M190 883l21 86h258l-164 -699q-11 -54 -3.5 -91.5t31.5 -61t52 -34.5t59 -11q70 0 155.5 40t213.5 128l145 643h-167l20 86h266l-205 -883h158l-20 -86h-256l30 137q-117 -80 -202 -115.5t-158 -35.5q-49 0 -92 16t-78.5 52t-46 93.5t5.5 141.5l135 594h-158zM432 1411 h123l203 -321h-76z" />
<glyph unicode="&#xfa;" horiz-adv-x="1067" d="M190 883l21 86h258l-164 -699q-11 -54 -3.5 -91.5t31.5 -61t52 -34.5t59 -11q70 0 155.5 40t213.5 128l145 643h-167l20 86h266l-205 -883h158l-20 -86h-256l30 137q-117 -80 -202 -115.5t-158 -35.5q-49 0 -92 16t-78.5 52t-46 93.5t5.5 141.5l135 594h-158zM649 1090 l203 321h123l-250 -321h-76z" />
<glyph unicode="&#xfb;" horiz-adv-x="1067" d="M190 883l21 86h258l-164 -699q-11 -54 -3.5 -91.5t31.5 -61t52 -34.5t59 -11q70 0 155.5 40t213.5 128l145 643h-167l20 86h266l-205 -883h158l-20 -86h-256l30 137q-117 -80 -202 -115.5t-158 -35.5q-49 0 -92 16t-78.5 52t-46 93.5t5.5 141.5l135 594h-158zM444 1083 l273 314h114l185 -314h-60l-208 238l-246 -238h-58z" />
<glyph unicode="&#xfc;" horiz-adv-x="1067" d="M190 883l21 86h258l-164 -699q-11 -54 -3.5 -91.5t31.5 -61t52 -34.5t59 -11q70 0 155.5 40t213.5 128l145 643h-167l20 86h266l-205 -883h158l-20 -86h-256l30 137q-117 -80 -202 -115.5t-158 -35.5q-49 0 -92 16t-78.5 52t-46 93.5t5.5 141.5l135 594h-158zM524 1255 q0 31 20.5 51.5t51.5 20.5t52.5 -20.5t21.5 -51.5t-21.5 -52t-52.5 -21t-51.5 21t-20.5 52zM877 1255q0 31 20 51.5t51 20.5t52.5 -20.5t21.5 -51.5t-21.5 -52t-52.5 -21t-51 21t-20 52z" />
<glyph unicode="&#xfd;" d="M-27 -434l21 86h201l198 330l-84 901h-129l21 86h358l-20 -86h-131l65 -762h4l455 762h-148l21 86h334l-21 -86h-86l-786 -1317h-273zM639 1090l203 321h123l-250 -321h-76z" />
<glyph unicode="&#xfe;" horiz-adv-x="1193" d="M-88 -434l22 86h136l379 1653h-156l20 86h256l-125 -537l5 -4q160 141 337 141q179 0 296.5 -122t117.5 -312q0 -157 -77 -291t-208 -212.5t-284 -78.5q-92 0 -172.5 41t-175.5 136l-113 -500h166l-23 -86h-401zM307 248q166 -187 332 -187q123 0 230 67t170 180.5 t63 244.5q0 88 -27.5 157.5t-74 111t-103.5 62.5t-121 21q-181 0 -360 -182z" />
<glyph unicode="&#xff;" d="M-27 -434l21 86h201l198 330l-84 901h-129l21 86h358l-20 -86h-131l65 -762h4l455 762h-148l21 86h334l-21 -86h-86l-786 -1317h-273zM514 1255q0 31 20.5 51.5t51.5 20.5t52 -20.5t21 -51.5t-21 -52t-52 -21t-51.5 21t-20.5 52zM866 1255q0 31 20.5 51.5t51.5 20.5 t52.5 -20.5t21.5 -51.5t-21.5 -52t-52.5 -21t-51.5 21t-20.5 52z" />
<glyph unicode="&#x152;" horiz-adv-x="2068" d="M195 573q0 68 14.5 142t47 154.5t81 154.5t122.5 141.5t164.5 117t213 79t262.5 29.5h1087l-98 -424h-86l78 338h-651l-127 -551h512l-21 -86h-512l-135 -582h659l78 336h86l-96 -422h-1028q-136 0 -247 32.5t-185 87.5t-124.5 129.5t-72.5 155t-22 168.5zM305 569 q0 -104 34 -191.5t100 -153t170.5 -102t238.5 -36.5h188l283 1219h-213q-168 0 -306 -47.5t-228 -123t-152 -174t-88.5 -197t-26.5 -194.5z" />
<glyph unicode="&#x153;" horiz-adv-x="1855" d="M152 408q0 155 75 290t201 214t270 79q125 0 218.5 -71t140.5 -201q75 132 182.5 202t235.5 70q97 0 178 -39t134.5 -107.5t75.5 -167.5t3 -212h-795q-17 -177 68 -290.5t227 -113.5q82 0 164 43.5t151 122.5l99 -37q-178 -215 -410 -215q-134 0 -230 71.5t-145 207.5 q-99 -143 -207.5 -211t-240.5 -68q-177 0 -286 120.5t-109 312.5zM250 401q0 -155 83 -247.5t214 -92.5q118 0 219.5 69.5t161 188t59.5 256.5q0 144 -87 237t-210 93q-85 0 -165.5 -39.5t-141 -106t-97 -161t-36.5 -197.5zM1085 543h695q9 166 -78 264t-227 98 q-141 0 -251.5 -109.5t-138.5 -252.5z" />
<glyph unicode="&#x178;" horiz-adv-x="1216" d="M215 1305l18 86h439l-19 -86h-166l222 -572l505 572h-182l19 86h440l-18 -86h-140l-592 -672l-127 -547h168l-18 -86h-447l19 86h168l127 547l-260 672h-156zM696 1669q0 31 20.5 51.5t51.5 20.5t52.5 -20.5t21.5 -51.5t-21.5 -52.5t-52.5 -21.5t-51.5 21.5t-20.5 52.5z M1049 1669q0 31 20 51.5t51 20.5t52.5 -20.5t21.5 -51.5t-21.5 -52.5t-52.5 -21.5q-30 0 -50.5 21.5t-20.5 52.5z" />
<glyph unicode="&#x2c6;" horiz-adv-x="681" d="M252 1083l272 314h115l184 -314h-59l-209 238l-246 -238h-57z" />
<glyph unicode="&#x2dc;" horiz-adv-x="681" d="M274 1159q14 80 64.5 131t116.5 51q53 0 159 -50t154 -50q41 0 68.5 24t46.5 76h51q-11 -73 -58 -129.5t-114 -56.5q-56 0 -168 51q-108 49 -148 49q-89 0 -116 -96h-56z" />
<glyph unicode="&#x2000;" horiz-adv-x="931" />
<glyph unicode="&#x2001;" horiz-adv-x="1862" />
<glyph unicode="&#x2002;" horiz-adv-x="931" />
<glyph unicode="&#x2003;" horiz-adv-x="1862" />
<glyph unicode="&#x2004;" horiz-adv-x="620" />
<glyph unicode="&#x2005;" horiz-adv-x="465" />
<glyph unicode="&#x2006;" horiz-adv-x="310" />
<glyph unicode="&#x2007;" horiz-adv-x="310" />
<glyph unicode="&#x2008;" horiz-adv-x="232" />
<glyph unicode="&#x2009;" horiz-adv-x="372" />
<glyph unicode="&#x200a;" horiz-adv-x="103" />
<glyph unicode="&#x2010;" horiz-adv-x="724" d="M145 430l21 86h567l-20 -86h-568z" />
<glyph unicode="&#x2011;" horiz-adv-x="724" d="M145 430l21 86h567l-20 -86h-568z" />
<glyph unicode="&#x2012;" horiz-adv-x="724" d="M145 430l21 86h567l-20 -86h-568z" />
<glyph unicode="&#x2013;" horiz-adv-x="1024" d="M90 459v108h1049v-108h-1049z" />
<glyph unicode="&#x2014;" horiz-adv-x="2048" d="M90 459v108h2073v-108h-2073z" />
<glyph unicode="&#x2018;" horiz-adv-x="491" d="M356 938l50 211q27 115 69.5 173.5t124.5 68.5l-16 -70q-42 -6 -64.5 -46t-47.5 -121q-1 -5 -2 -8l-2.5 -7.5t-2.5 -8.5h47l-45 -192h-111z" />
<glyph unicode="&#x2019;" horiz-adv-x="491" d="M358 938l17 70q23 3 40 16.5t29.5 38.5t21.5 49.5t21 62.5q5 15 7 23h-48l46 193h110l-49 -211q-27 -114 -70 -173t-125 -69z" />
<glyph unicode="&#x201a;" horiz-adv-x="491" d="M72 -260l16 70q23 3 40 16.5t29.5 38.5t21.5 49.5t21 62.5q5 15 7 23h-47l45 193h110l-49 -211q-27 -115 -69.5 -173.5t-124.5 -68.5z" />
<glyph unicode="&#x201c;" horiz-adv-x="1003" d="M354 938l49 211q27 114 70 173t125 69l-16 -70q-42 -6 -64.5 -46t-47.5 -121q-1 -5 -2 -8l-2.5 -7.5t-2.5 -8.5h47l-45 -192h-111zM877 938l49 211q27 115 69.5 173.5t124.5 68.5l-16 -70q-42 -6 -64.5 -46t-47.5 -121q-4 -16 -7 -24h47l-45 -192h-110z" />
<glyph unicode="&#x201d;" horiz-adv-x="1003" d="M356 938l17 70q23 3 40 16.5t29.5 38.5t21.5 49.5t21 62.5q5 15 7 23h-48l45 193h111l-49 -211q-27 -114 -70 -173t-125 -69zM879 938l16 70q23 3 40 16.5t29.5 38.5t21.5 49.5t21 62.5q5 15 7 23h-47l45 193h110l-49 -211q-27 -115 -69.5 -173.5t-124.5 -68.5z" />
<glyph unicode="&#x201e;" horiz-adv-x="1003" d="M170 -260l16 70q23 3 40 16.5t29.5 38.5t21.5 49.5t21 62.5q5 15 7 23h-47l45 193h111l-49 -211q-27 -114 -70 -173t-125 -69zM692 -260l17 70q10 1 19 5t16 8.5t14.5 13.5t12.5 15.5t11 20t9.5 21t9.5 24.5t8.5 25.5t8.5 28t9 28.5h-47l45 193h111l-49 -211 q-27 -114 -70 -173t-125 -69z" />
<glyph unicode="&#x2022;" horiz-adv-x="1024" d="M397 698q0 103 73.5 176.5t176.5 73.5t176.5 -73.5t73.5 -176.5t-73.5 -176t-176.5 -73t-176.5 73t-73.5 176z" />
<glyph unicode="&#x2026;" horiz-adv-x="2048" d="M285 0v190h114v-190h-114zM967 0v190h114v-190h-114zM1649 0v190h114v-190h-114z" />
<glyph unicode="&#x202f;" horiz-adv-x="372" />
<glyph unicode="&#x2039;" horiz-adv-x="425" d="M141 459l344 473h105l-361 -486l156 -401h-82z" />
<glyph unicode="&#x203a;" horiz-adv-x="425" d="M14 45l361 485l-156 402h82l162 -414l-344 -473h-105z" />
<glyph unicode="&#x205f;" horiz-adv-x="465" />
<glyph unicode="&#x20ac;" d="M133 547l21 82h118q2 42 15 141h-154l17 82h153q59 250 202 406.5t322 156.5q175 0 260 -133l15 111h82l-49 -330h-70q3 132 -63 201t-175 69q-147 0 -260.5 -131.5t-163.5 -349.5h529l-19 -82h-526q-12 -88 -14 -141h518l-19 -82h-499q3 -233 74 -358.5t200 -125.5 q99 0 177.5 73t121.5 171l68 -51q-23 -48 -55 -92.5t-77 -87.5t-105.5 -68.5t-127.5 -25.5q-85 0 -151 33t-107.5 86.5t-68.5 129t-38 152t-12 164.5h-139z" />
<glyph unicode="&#x2122;" horiz-adv-x="1921" d="M231 1303v88h637v-88h-264v-730h-106v730h-267zM961 573v818h155l203 -654h4l209 654h156v-818h-95v730h-4l-235 -730h-70l-225 730h-4v-730h-94z" />
<glyph unicode="&#xe000;" horiz-adv-x="972" d="M0 0v973h973v-973h-973z" />
<glyph unicode="&#xfb01;" horiz-adv-x="1067" d="M31 0l20 86h135l183 797h-150l19 86h151l33 137q74 307 301 307q46 0 82 -12t104 -45l-37 -74q-83 45 -153 45q-75 0 -124.5 -59t-78.5 -185l-27 -114h607l-205 -883h156l-19 -86h-399l18 86h144l184 797h-504l-184 -797h151l-20 -86h-387zM1049 1341q0 31 21 52.5 t52 21.5t52.5 -21.5t21.5 -52.5t-21.5 -52t-52.5 -21t-52 21t-21 52z" />
<glyph unicode="&#xfb02;" horiz-adv-x="1067" d="M31 0l20 86h135l183 797h-150l19 86h151l33 137q74 307 303 307q54 0 113 -22h358l-301 -1305h158l-21 -86h-401l20 86h144l280 1219h-237q-44 22 -117 22q-75 0 -125.5 -59.5t-79.5 -184.5l-27 -114h158l-20 -86h-156l-184 -797h149l-20 -86h-385z" />
</font>
</defs>
</svg>
